<mxfile host="Electron" modified="2024-02-07T18:47:04.348Z" agent="Mozilla/5.0 (Macintosh; Intel Mac OS X 10_15_7) AppleWebKit/537.36 (KHTML, like Gecko) draw.io/22.1.18 Chrome/120.0.6099.199 Electron/28.1.2 Safari/537.36" etag="Aem8PxXjfXZ9hjPnlx-1" version="22.1.18" type="device">
  <diagram name="Page-1" id="04vIbzAkxdwbGHBE5Ppn">
    <mxGraphModel dx="1114" dy="894" grid="1" gridSize="10" guides="1" tooltips="1" connect="1" arrows="1" fold="1" page="1" pageScale="1" pageWidth="1600" pageHeight="900" math="0" shadow="0">
      <root>
        <mxCell id="0" />
        <mxCell id="1" parent="0" />
        <mxCell id="1zBleYjPCfKHzwChKZNf-1" value="" style="shape=image;verticalLabelPosition=bottom;labelBackgroundColor=default;verticalAlign=top;aspect=fixed;imageAspect=0;image=data:image/png,iVBORw0KGgoAAAANSUhEUgAAAxoAAAJqCAIAAAAjd6FwAAAKrmlDQ1BJQ0MgUHJvZmlsZQAASImVlwdUU9kWhs+96SGhJURASuhNkE4AKSG0AALSwUZIAoQSYiCoiIrK4AiOKCIiqCg6SlFwLICMFVEsDAIK2CfIoKCMgwUbKu8Ci+DMW++99fZae50vO/v8Z5+z7rlrXwDIihyRKAVWBCBVmCEO8fGgR0XH0HFDAAJEQAUOgMbhpouYwcEBALGZ8e/2vhfJRuyO+aTWv///X02Jx0/nAgAFIxzHS+emInwa8RdckTgDANQBJK63MkM0ya0IU8VIgQjfm+SEaR6Z5LgpRoOpnLAQFsJUAPAkDkecAACJjsTpmdwERIfkjrClkCcQIixC2DU1NY2H8AmEjZEcJEaa1GfEfaeT8DfNOJkmh5Mg4+m9TBneU5AuSuGs/j+P439baopkZg1DxEmJYt8QZFRGzuxecpq/jIVxgUEzLOBN5U9xosQ3fIa56ayYGeZxPP1lc1MCA2Y4XuDNlulksMNmmJ/uFTrD4rQQ2VrxYhZzhjni2XUlyeGyeCKfLdPPSgyLnOFMQUTgDKcnh/rP5rBkcbEkRFY/X+jjMbuut2zvqenf7VfAls3NSAzzle2dM1s/X8ic1UyPktXG43t6zeaEy/JFGR6ytUQpwbJ8foqPLJ6eGSqbm4E8kLNzg2VnmMTxC55hwAJpIAVxMaCDAOSXJwAZ/FUZkxthpYlWiwUJiRl0JnLD+HS2kGsxj25taW0LwOR9nX4c3tKm7iFEuzkb20QEwEU4MTFxbjbm/xmA0zoAEKWzMaNuAOSR5/76Dq5EnDkdm7pLGOQ9oIC8CdSAFtADxsAcWAN74AzcgRfwA0EgDESDZYALEkEqUvlKkA02gDxQALaDXaAMVIBDoAocBydBIzgHLoNr4BboBD3gIZCCQfASjIL3YByCIBxEhiiQGqQNGUBmkDXEgFwhLygACoGioVgoARJCEigb2gQVQEVQGXQQqoZ+gc5Cl6EbUBd0H+qHhqE30GcYBZNgKqwJG8LzYQbMhP3hMHgpnACvgLPgXHgbXApXwsfgBvgyfAvugaXwS3gMBVByKBpKB2WOYqBYqCBUDCoeJUatQ+WjSlCVqDpUM6oNdQclRY2gPqGxaAqajjZHO6N90eFoLnoFeh16K7oMXYVuQLei76D70aPobxgyRgNjhnHCsDFRmATMSkwepgRzBHMGcxXTgxnEvMdisTSsEdYB64uNxiZh12C3Yvdh67GXsF3YAewYDodTw5nhXHBBOA4uA5eH24M7hruI68YN4j7i5fDaeGu8Nz4GL8RvxJfga/AX8N345/hxgiLBgOBECCLwCKsJhYTDhGbCbcIgYZyoRDQiuhDDiEnEDcRSYh3xKvER8a2cnJyunKPcIjmBXI5cqdwJuety/XKfSMokUxKLtIQkIW0jHSVdIt0nvSWTyYZkd3IMOYO8jVxNvkJ+Qv4oT5G3kGfL8+TXy5fLN8h3y79SICgYKDAVlilkKZQonFK4rTCiSFA0VGQpchTXKZYrnlXsUxxToihZKQUppSptVapRuqE0pIxTNlT2UuYp5yofUr6iPEBBUfQoLAqXsolymHKVMkjFUo2obGoStYB6nNpBHVVRVrFViVBZpVKucl5FSkPRDGlsWgqtkHaS1kv7PEdzDnMOf86WOXVzuud8UJ2r6q7KV81XrVftUf2sRlfzUktW26HWqPZYHa1uqr5IfaX6fvWr6iNzqXOd53Ln5s89OfeBBqxhqhGisUbjkEa7xpimlqaPpkhzj+YVzREtmpa7VpJWsdYFrWFtirartkC7WPui9gu6Cp1JT6GX0lvpozoaOr46Ep2DOh0647pGuuG6G3XrdR/rEfUYevF6xXoteqP62voL9bP1a/UfGBAMGAaJBrsN2gw+GBoZRhpuNmw0HDJSNWIbZRnVGj0yJhu7Ga8wrjS+a4I1YZgkm+wz6TSFTe1ME03LTW+bwWb2ZgKzfWZd8zDzHOcJ51XO6zMnmTPNM81rzfstaBYBFhstGi1ezdefHzN/x/y2+d8s7SxTLA9bPrRStvKz2mjVbPXG2tSaa11ufdeGbONts96myea1rZkt33a/7T07it1Cu812LXZf7R3sxfZ19sMO+g6xDnsd+hhURjBjK+O6I8bRw3G94znHT072ThlOJ53+cjZ3TnaucR5aYLSAv+DwggEXXReOy0EXqSvdNdb1gKvUTceN41bp9tRdz53nfsT9OdOEmcQ8xnzlYekh9jjj8YHlxFrLuuSJ8vTxzPfs8FL2Cvcq83rireud4F3rPepj57PG55Ivxtffd4dvH1uTzWVXs0f9HPzW+rX6k/xD/cv8nwaYBogDmhfCC/0W7lz4KNAgUBjYGASC2EE7gx4HGwWvCP51EXZR8KLyRc9CrEKyQ9pCKaHLQ2tC34d5hBWGPQw3DpeEt0QoRCyJqI74EOkZWRQpjZoftTbqVrR6tCC6KQYXExFzJGZssdfiXYsHl9gtyVvSu9Ro6aqlN5apL0tZdn65wnLO8lOxmNjI2JrYL5wgTiVnLI4dtzdulMvi7ua+5LnzinnDfBd+Ef95vEt8UfxQgkvCzoThRLfEksQRAUtQJnid5JtUkfQhOSj5aPJESmRKfSo+NTb1rFBZmCxsTdNKW5XWJTIT5YmkK5xW7FoxKvYXH0mH0pemN2VQkcaoXWIs+UHSn+maWZ75cWXEylOrlFYJV7WvNl29ZfXzLO+sn9eg13DXtGTrZG/I7l/LXHtwHbQubl3Ler31uesHc3xyqjYQNyRv+G2j5caije82RW5qztXMzckd+MHnh9o8+TxxXt9m580VP6J/FPzYscVmy54t3/J5+TcLLAtKCr5s5W69+ZPVT6U/TWyL39ZRaF+4fzt2u3B77w63HVVFSkVZRQM7F+5sKKYX5xe/27V8140S25KK3cTdkt3S0oDSpj36e7bv+VKWWNZT7lFev1dj75a9H/bx9nXvd99fV6FZUVDx+YDgwL2DPgcbKg0rSw5hD2UeenY44nDbz4yfq4+oHyk48vWo8Ki0KqSqtdqhurpGo6awFq6V1A4fW3Ks87jn8aY687qD9bT6ghPghOTEi19if+k96X+y5RTjVN1pg9N7z1DO5DdADasbRhsTG6VN0U1dZ/3OtjQ7N5/51eLXo+d0zpWfVzlfeIF4IffCxMWsi2OXRJdGLidcHmhZ3vLwStSVu62LWjuu+l+9fs372pU2ZtvF6y7Xz91wunH2JuNm4y37Ww3tdu1nfrP77UyHfUfDbYfbTZ2Onc1dC7oudLt1X77jeefaXfbdWz2BPV294b33+pb0Se/x7g3dT7n/+kHmg/GHOY8wj/IfKz4ueaLxpPJ3k9/rpfbS8/2e/e1PQ58+HOAOvPwj/Y8vg7nPyM9Knms/rx6yHjo37D3c+WLxi8GXopfjI3l/Kv2595Xxq9N/uf/VPho1Ovha/Hrizda3am+PvrN91zIWPPbkfer78Q/5H9U+Vn1ifGr7HPn5+fjKL7gvpV9NvjZ/8//2aCJ1YkLEEXOmWgEU4nB8PABvjgJAjgaA0on0D4un++kpg6a/AaYI/Cee7rmnzB6AOmSYbItYlwA4gbhhDqKN+GRLFOYOYBsbmc/0vlN9+qRhkS+WA56TdH/n0hzwD5vu4b+r+58jmFS1Bf8c/wXKLQcwDilIWwAAADhlWElmTU0AKgAAAAgAAYdpAAQAAAABAAAAGgAAAAAAAqACAAQAAAABAAADGqADAAQAAAABAAACagAAAAAxnQiWAABAAElEQVR4Ae3dSWxe13338VKUSFGc53mSqHmwIlmOLQ9orNpOWiPtJii6KRq0aIGus0izaJCmQDdBVt12V6BdBG0DL2LEjes6liwPsiVL1ixSosR5pjiIGsj3/0IvtMl7vkd4nqW+WRTC/d//ued+nnPvc8wCv6dkY2Pj9/yfAgoooIACCiigQKECmwpttE8BBRRQQAEFFFDg/wq4nXIdKKCAAgoooIACRQm4nSqKz2YFFFBAAQUUUMDtlGtAAQUUUEABBRQoSsDtVFF8NiuggAIKKKCAAm6nXAMKKKCAAgoooEBRAm6niuKzWQEFFFBAAQUUcDvlGlBAAQUUUEABBYoScDtVFJ/NCiiggAIKKKDAZib4x3/8RziBE9WrqqpSvfPz86lSHIfGqD569Ah6S0tLC6tu27YNGvlO+aIlJSUwMlfv3buX6uUpbd26NdUYx+/evQtVnlJ5eXmq92//9m9TpTj+z//8z1DlJXH//n3oBQoetqKiAobdtIn+Y6Ourg56wbC2thYaFxcXoTo5OQnVlZUVqFZXV0O1oaEhVeXlDY0xIPuPjo6mLhrHf/azn6Wq//RP/5QqxfEHDx5AlUv8ocPIUIorbt5Mb9qysjKYVXd3N1Snpqag+u6776aqy8vLqVIc/853vgPV1157DapLS0tQ/eqrr1LVsbGxVCmO79q1C6r8TvvRj34EvT/5yU9SVV7eCwsLqcY43traCtXZ2VmowpLgtQRvnrjc2toaXJRvh0eGbxz+yub3EnwDxo3w6wX8Hz58WLDDT3/601QvfWGkejyugAIKKKCAAgoo8ETA7dQTCv+hgAIKKKCAAgoUIuB2qhA1exRQQAEFFFBAgScCbqeeUPgPBRRQQAEFFFCgEAG3U4Wo2aOAAgoooIACCjwRcDv1hMJ/KKCAAgoooIAChQi4nSpEzR4FFFBAAQUUUOCJgNupJxT+QwEFFFBAAQUUKESAwuWy43EWFoS5ra6uwuCc2cgX5SrElHGYGGf08UU5K5IzErds2QJQBZcqKyuhl/05kw2G5cg1SAeNMTlcET47zszkKc3MzMDt8BquqalJ9UJAX7Q0NTWlGuM4Z4cODw9DLyz+6IKb7erqgmE53I8jB3t6emBkKEFwa3TxEuVeWEsxMoQ6csIqp7PCaomL8oJpbGwEKIi+5NxLXmm8+C9dugRTunjxYqrK98ITZqXUFR8fh9cLPBfRy6/K69evw3V5wvDmn5ubg2F7e3uhyjGe9fX10MuvaFjh3MiG/M0LQZ1xI7BK+b3E3xpA5F+nAMeSAgoooIACCiiQF3A7lTfyDAUUUEABBRRQAATcTgGOJQUUUEABBRRQIC/gdipv5BkKKKCAAgoooAAIuJ0CHEsKKKCAAgoooEBewO1U3sgzFFBAAQUUUEABEHA7BTiWFFBAAQUUUECBvIDbqbyRZyiggAIKKKCAAiDgdgpwLCmggAIKKKCAAnmBTCr6tm3bYAwIQo0uCLHlTNJ79+7BRTnRGy4aY0LU7MrKClyUk805Z3lsbAxG3rp1K1ThZjkulifMsdGgFFPlFGy4l/X1dahyOnxVVRX0wu00NzdDI680zgiG0P+4IoQpc4Y+Kx08eBBuh5/WmzdvQu/4+HiqynHq/BLgfGH+WFPzieN8pxx2z3nf/FjBSuMFzMNyL1w0KCDRO6rT09MpRn6QuZoa8/Fxjt6G9c+R9PzBQQQ2zzaqkDPOv1LAb2/+lQIeeWRkJDVt+FKIFmiMKj84sFqil28WPjv+aPjnBPiHE/gFvry8nDLkRlZKjRnH/esU4FhSQAEFFFBAAQXyAm6n8kaeoYACCiiggAIKgIDbKcCxpIACCiiggAIK5AXcTuWNPEMBBRRQQAEFFAABt1OAY0kBBRRQQAEFFMgLuJ3KG3mGAgoooIACCigAAm6nAMeSAgoooIACCiiQF3A7lTfyDAUUUEABBRRQAAQyMZ4c5tbV1QVDQzAmx3hyMB3nHPb29sKUIC6Pc/bYAYaNydy/fx+mBFFj0QUjc7gfhyvCfKLEI3OYG48MVVgt0cXBgDxhuGhbWxtUIW8wugYHB6F3YmIiVYXAzGjhzEx+cHbs2JG6aBx//vnnofr555+nqlNTU6lSHOfl3dDQAL0Fl/hphUTBuCIn/TY2NsKs4Lr8xHE0LlwxSuXl5XACr0PISOS1xO92VuIMYchIZCUOfeW0ZACM0r59+1In3L59O1WK4zzhlpYW6OV3Wnt7e6qXA4S5yvGVfDsQdhpThexc/sqA9RDDDg0NpRziOD/psMK5kScM8/GvU4BjSQEFFFBAAQUUyAu4ncobeYYCCiiggAIKKAACbqcAx5ICCiiggAIKKJAXcDuVN/IMBRRQQAEFFFAABNxOAY4lBRRQQAEFFFAgL+B2Km/kGQoooIACCiigAAi4nQIcSwoooIACCiigQF7A7VTeyDMUUEABBRRQQAEQcDsFOJYUUEABBRRQQIG8QCYVfWNjA8aAzO7oghBbiCuNRk4BLisrgylxZjrE1PK9cO52XV0dTInDZKExShAQPz09Db0cuctJ1hD9zFOC+WQbOVSalwSkMPOd8rC7du2CO4KLRhcsp0uXLsGwH3/8MVQ5oJxvp7OzE0Z+8cUXU9Vr166lSnH8/PnzUB0dHYUqLG/oihI/5qurq9DOkcccDA2PFb8iIDM6psorDd5a0cux0ZDOz+uBc89rampAmHPnYQ339/fDsPwrBfyhw7BRmpmZSZ3AP5zAa4kjyGtra1MXjeOwwvlLmZ84/vbk2xkZGYEJd3R0pKq8+PmDa2pqSg0bx/n1Dl9kbFjwV7Z/nYIPy5ICCiiggAIKKJAXcDuVN/IMBRRQQAEFFFAABNxOAY4lBRRQQAEFFFAgL+B2Km/kGQoooIACCiigAAi4nQIcSwoooIACCiigQF7A7VTeyDMUUEABBRRQQAEQcDsFOJYUUEABBRRQQIG8gNupvJFnKKCAAgoooIACIOB2CnAsKaCAAgoooIACeYFMKjonOPf29sIVIOea45s5mJjzTDn19fbt26kJc74q555zyPvKykrqonGcw7UhCLjgROm4KBvCRaOXQ2zhTvlD59uprq6GkScnJ6EKJQ6GHh4eht76+nqofvvb305VIe84Wjh6+Le//W1q2DjOH81bb70Fvfv3709VOSD7wIEDqcY4vrS0BFVOcIZGfkXwM1VSUgIjc5I1XJfxOW9627ZtMCVeafx6gUDqY8eOwUV7enqgCunw0cUfKwjzRwP4cVF+RcC9RAnis5mXM7v5dvirChZMQ0MD3E5raytU+SXMa5iFeQ3DlHbu3AlVTtjn1wusUsaH+XDJv06xj1UFFFBAAQUUUCAj4HYqA2RZAQUUUEABBRRgAbdT7GNVAQUUUEABBRTICLidygBZVkABBRRQQAEFWMDtFPtYVUABBRRQQAEFMgJupzJAlhVQQAEFFFBAARZwO8U+VhVQQAEFFFBAgYyA26kMkGUFFFBAAQUUUIAF3E6xj1UFFFBAAQUUUCAjkElFX15ehgGuXbsGVYiahWDcGPDRo0cwLCe3FlwtLS2Fi7IDNEaJI8g5UR0CqSE2Ny5aVVUFs+JqS0sL9BYcQc75whyqy5n1kD7MH+vNmzfhTmdnZ6F65MgRqDY3N6eqf/3Xf50qxfHu7m6o/su//AtUT58+DVX4SYDo+u53v5vq5fjsrq6uVGMc55B3XsMwLAf3w5snxoTVElV+NOD1wg8yT5inBBeNCS8sLAAUPHR80ba2NhiWH5zx8XHohdc7rwcWZgeYT5Tg0eDn8cyZMzAyv7X41xEg2b+mpgYuWkzIOOfOw0WjBCuNI8h5F8G/R8JrGKA4Tp3vFKr+dQpwLCmggAIKKKCAAnkBt1N5I89QQAEFFFBAAQVAwO0U4FhSQAEFFFBAAQXyAm6n8kaeoYACCiiggAIKgIDbKcCxpIACCiiggAIK5AXcTuWNPEMBBRRQQAEFFAABt1OAY0kBBRRQQAEFFMgLuJ3KG3mGAgoooIACCigAAm6nAMeSAgoooIACCiiQF8ikovf29sIYkG8bXZAJy0Hh0BjDcvrt3NwcTLi2tjZV5WE5wXZxcTE1bBznvG8OiL97925qZM7s5qxqDpPlUOPp6enUlPg4f+iQAhzD8pKAGHdeD2trazDniYkJqL733ntQhTT2t956Cxr/4i/+AqqQ8xtdv/jFL6D3448/huqnn36aqvInfvjw4VRjHIcnLqo9PT3QCyVeSxxBzrnnPDJEP/MS5bxvnhKv0sHBQYCCV1N9fT008oTn5+ehl/1hZCjF5fijgflkS5Ddz+9n/gaE1RJTGhsbg4mBMK8W+MTjcp2dnXBRjsLnLzJY//wSgO+4mOr27dthwtwL3yk8JV7AMB//OgU4lhRQQAEFFFBAgbyA26m8kWcooIACCiiggAIg4HYKcCwpoIACCiiggAJ5AbdTeSPPUEABBRRQQAEFQMDtFOBYUkABBRRQQAEF8gJup/JGnqGAAgoooIACCoCA2ynAsaSAAgoooIACCuQF3E7ljTxDAQUUUEABBRQAAbdTgGNJAQUUUEABBRTIC2RS0TmTdPNmat+yZUvq+pzrylGzHFC+aRNtEGFKqak+Ps5T4rjYpaUlGHx1dRWqkMnLjZx7PjMzAxeFRO/oGhgYgF4o8ZQgVDfG5DRwEK6rq4MpcQrz8PAw9N68eROq77//fqrKscUnTpxINcbx733ve1BlJQ5EPnv2bGrkixcvpkpxvKysDKr8AmloaIBeKMFzAV2PS/ws8yuiuro6NT4ka0cL503zRZeXl1MXjeMcDA1LgoOh4YpRYn9+RfMjCdflp5UjyGHYKD3//POpExifn2V+kfJXFWTWc5w6RIHHPfKvRBTz0yDweuEXKT8ad+7cSX00cfzBgwdQbWpqSlX5lx4KfjRo85GaiscVUEABBRRQQAEFngi4nXpC4T8UUEABBRRQQIFCBNxOFaJmjwIKKKCAAgoo8ETA7dQTCv+hgAIKKKCAAgoUIuB2qhA1exRQQAEFFFBAgScCbqeeUPgPBRRQQAEFFFCgEAG3U4Wo2aOAAgoooIACCjwRcDv1hMJ/KKCAAgoooIAChQhQDmeMBylwUeU8MQgiW1tbg8lCVl50cQocB4RCbCBHrvGUOFGTw04hghKIosSNo6Oj0M6Rd5OTk9Db09MDVShx5Br785S6urpS193Y2EiV4jhftLGxEXpnZ2eheubMmVR1cHAwVYrjHJD45ptvQu/rr78OVb5ZiF7k6L9r167BRTl6kT8dGJZzLzkgEYaNEj8a8OLiOFNOqWUHftJZGN6Hzc3NQMHpoFzlwF6IUeVXxPz8PEyYs5ShMUr79u1LncArjT9WDqjkXljD/HXDb354zEOAX038zQurlD8aXksco8pfRuPj46mPtaOjI1WK41NTU1CFkn+dAhxLCiiggAIKKKBAXsDtVN7IMxRQQAEFFFBAARBwOwU4lhRQQAEFFFBAgbyA26m8kWcooIACCiiggAIg4HYKcCwpoIACCiiggAJ5AbdTeSPPUEABBRRQQAEFQMDtFOBYUkABBRRQQAEF8gJup/JGnqGAAgoooIACCoCA2ynAsaSAAgoooIACCuQFMqnoHA+6uLgIV5ienk5VOcmX42I5mzV1xcfHIRMW4oOjl3N+y8vL4boc9cupu3BdTmF++PAhTImjn3nCEAwNV4wST5gvysnykH7LcfY8bH9/P9wRh0qfPXs21Xvjxo1UKY7/67/+K1Q5EPmFF16A3mPHjkEVlsS5c+egkX8agTOaOQ0cLgrPRXRVVlZCL79eeEqQ6M3RzzwlXvxw0bhNjtGHYG7+xQsIuY6LLiwsgDA/6bW1taleflo5IJsvmrri4+PwnTIzMwO9nZ2dUOXvx71790IvLImmpiZo5N9ygC/lGJNXGrxmoxe+F0ZGRmDCfFGOwoeLxhVhm8EX3bFjB0wYSv51CnAsKaCAAgoooIACeQG3U3kjz1BAAQUUUEABBUDA7RTgWFJAAQUUUEABBfICbqfyRp6hgAIKKKCAAgqAgNspwLGkgAIKKKCAAgrkBdxO5Y08QwEFFFBAAQUUAAG3U4BjSQEFFFBAAQUUyAu4ncobeYYCCiiggAIKKAACbqcAx5ICCiiggAIKKJAXyKSic64rByJDVngx2ayXLl2C2+KMYIg85nzVTZto3wl3GlOFvOmocogthLdyCjAPy2ngXIUl8fbbb8NHw4acSj87OwsjQ841lGJADoZub2+Hi3IK9tGjR1O98JlGy/Xr11ONcfx//ud/oHr37l2oHjp0CKqtra2p6p49e1KlOM7rkJ90zu6Hi7IhLNEYk1cav0BgOZWWlsKEIaA5uriXf5qCX1yQM84fHH80BQdkA1GUGB/e3jxstnr+/PnUOZy//+mnn6Ya43hLSwtU33//fajCQ8dvnoqKChgW8t+jiz90fr3AYwUJ73FRFoYFHL18s/AbErzSeFjgpV0CtFlSQAEFFFBAAQUUeCzgdsqVoIACCiiggAIKFCXgdqooPpsVUEABBRRQQAG3U64BBRRQQAEFFFCgKAG3U0Xx2ayAAgoooIACCridcg0ooIACCiiggAJFCbidKorPZgUUUEABBRRQwO2Ua0ABBRRQQAEFFChKwO1UUXw2K6CAAgoooIACmVR0yBUNu/r6ehCEEFsOyOYqZ8JyBDkkCEPecdwjpzBzKjoH0YIS2EaJw2R5wlwFpSwFzxmq7MCh0hDIOzMzAxedm5uDKof+d3Z2Qi8siT/4gz+ARg7I5uV94cIFGJk/VshM5+exr68PLsoJ+7dv34ZeKK2vr0OVS5zRzCNDbDQ/j/x6mZ+fhznzS5hjo+F24KmJyUxOTsKU+GabmpqgFybMjzmMGSVepdx78+bN1AnLy8upUhznKi9vfpYhqJ0TvfmJGxgYgNvZsmULVHkNd3R0pHr5nZbqenyceysrK6EdXsL8xPGdwhX96xTgWFJAAQUUUEABBfICbqfyRp6hgAIKKKCAAgqAgNspwLGkgAIKKKCAAgrkBdxO5Y08QwEFFFBAAQUUAAG3U4BjSQEFFFBAAQUUyAu4ncobeYYCCiiggAIKKAACbqcAx5ICCiiggAIKKJAXcDuVN/IMBRRQQAEFFFAABNxOAY4lBRRQQAEFFFAgL5BJRedM0vb2drgChPly6ijH9XImLAShxlQh9ZVTuTlqlrNxKyoqClOKLh4ZhmUlTh/mXg7zhSnxRUdGRqCXI8gLzqqGK0ZpaGgITpidnYUqPBplZWXQ+Morr0D1+vXrUJ2YmIDq1NQUVM+ePZuqHjhwIFWK45xG3draCr1sCI38TPEC5iq8ImI+8DsQd+/ehQnzC4RvB5LN44r84oIHh4flVzS/l5aWloAC4rPhQY4BeUq8DmE+UYIPnVdLbW0tjMxfZPwst7W1pUYeHx9PleL4wsICVPkVwWsY3mlxxa+++ip13ZaWllQpjvPih11E9MLyjircDm9seBcB9+JfpwDHkgIKKKCAAgookBdwO5U38gwFFFBAAQUUUAAE3E4BjiUFFFBAAQUUUCAv4HYqb+QZCiiggAIKKKAACLidAhxLCiiggAIKKKBAXsDtVN7IMxRQQAEFFFBAARBwOwU4lhRQQAEFFFBAgbyA26m8kWcooIACCiiggAIgkInx5CCy+fl5GBriCjnRkePa4IpRKnjk6upqGJnz5Zqbmwvurampgd6Ccw453A8+mpgMp/CxMNzL4uIiVCG2Lro4zA0+HU6Qe/DgAUyJcy9LSkqg986dO6lqd3d3qhTHOY1wYGAAevnB4QnDpzM8PAwX5VJlZSWcwA8ONEJAX3Txs8wfOvtDhi2nYvLzOD09DTcLF42uhoYG6IWnlZ8pnhIr8ZTgaeWL8pcRL28gihKMfOLECejlJ44jQPlZhtxX/lLgdcgfOt8OPzjwpPMLZNu2bSDMX1WcWfro0aPUyDwsv15SY8Zx/zoFOJYUUEABBRRQQIG8gNupvJFnKKCAAgoooIACIOB2CnAsKaCAAgoooIACeQG3U3kjz1BAAQUUUEABBUDA7RTgWFJAAQUUUEABBfICbqfyRp6hgAIKKKCAAgqAgNspwLGkgAIKKKCAAgrkBdxO5Y08QwEFFFBAAQUUAAG3U4BjSQEFFFBAAQUUyAtkUtE5ILuiogKusLy8DFUolZaWFlwdHR2FXkhu5ahZDoQtLy+Hi3IAKwfRwrBbtmyBKpc4G5dzdQueMKQhx2zZHzKCoxdydXm2EJsbw9bV1QEjZ6ZDbDQn+cK9xGTW1tZgSjt27IAqR/3CgwOB6XE5njCvJcjshhuJEr8iOI2a1yHfDoSb871wZjcr8YT5JQx537BEQ5gfDf50+H0I1+U4+7m5Obguv6KhMUrw0xQzMzPQW19fD9Xa2lqo8rMMb7y9e/fCsPxu54R9/qrixwq+7vlFynsMftK5CiuNlzc/j4DvX6cAx5ICCiiggAIKKJAXcDuVN/IMBRRQQAEFFFAABNxOAY4lBRRQQAEFFFAgL+B2Km/kGQoooIACCiigAAi4nQIcSwoooIACCiigQF7A7VTeyDMUUEABBRRQQAEQcDsFOJYUUEABBRRQQIG8gNupvJFnKKCAAgoooIACIOB2CnAsKaCAAgoooIACeYFMKjont3J4KAQBQ+RrTJmTWznPlLPCIeKWp8RJ1hC2HrcD2axR5ahZiAnmKfHt8LrgMF9Of4aROb6ZA3lh2CjBguGQa/7gOGe5tbUVZgUh73ynEC4cl+MpcfowP63bt29P3Q7cS7Rw2DrfDodKp+YTxyGdPKq8+DlJmR8rMOQocF78cKfZEi8noOC1ND09DZfmJGu+WXjoeEpNTU0wJc5Mh8YoQe48lKJxfHwcRubbAYcYE1baxMQEXJSfKf4th87OThiZfx0Bvnn50eBnmZc3bwbgu5UN4WsXfKLkX6fYx6oCCiiggAIKKJARcDuVAbKsgAIKKKCAAgqwgNsp9rGqgAIKKKCAAgpkBNxOZYAsK6CAAgoooIACLOB2in2sKqCAAgoooIACGQG3UxkgywoooIACCiigAAu4nWIfqwoooIACCiigQEbA7VQGyLICCiiggAIKKMACbqfYx6oCCiiggAIKKJARyKSicyYp531D+jCHmXIqN/dyFRK9Of2WI7DZ+P79+3ACJ8ZC1CxHD/PtQFZyTJXTb+FjhduMEk+Ylfh2IF8YAtNjShzuzB9NwZHHk5OTAMVPHNxpjDk/Pw8jw68URBckCHPOMqdRc1B7VVUVTBhK/Jjzbznwx8ox+pDgDI9q3Ajjcy8vCX4JAxTH2cOdxu3w08qvCFjDfKe8vPl5hLUUJXgP8EfDof/wdRMXvXbtGsyqubk5VYVHNVr4Y2Wl1dXV1EXjOK80eNLZgX+HAIbN3iw8dF1dXQXfKTVCzZICCiiggAIKKKBAVsD/Z1+WyBMUUEABBRRQQAEScDtFOtYUUEABBRRQQIGsgNupLJEnKKCAAgoooIACJOB2inSsKaCAAgoooIACWQG3U1kiT1BAAQUUUEABBUjA7RTpWFNAAQUUUEABBbICbqeyRJ6ggAIKKKCAAgqQgNsp0rGmgAIKKKCAAgpkBTKp6JwJyxGrkI3L+aoFDxt3y3nfkLq7vr4OWJykDI1RKiZqFtLA29ra4Lp8Ua5yfDlXYUoc5svC/LFCXDKHXMN6iBvhKcHy5l4OauecZb4of6wcbg69nHvOyeYzMzOwJDhcGxp5EfILBILC44q80kCJ1xL/0gAMG1Oanp4GCu6F9Gd+gfDtjI2NwZTgeYyuqampVC/MNlp48fOEU1d8fBxiu3mlwfs5Rq6pqYHrNjQ0QBVK/NTw64Xfh/wsT0xMwKzgSedfKWhpaSls2OjiJQEvcP7g+KsKZutfpwDHkgIKKKCAAgookBdwO5U38gwFFFBAAQUUUAAE3E4BjiUFFFBAAQUUUCAv4HYqb+QZCiiggAIKKKAACLidAhxLCiiggAIKKKBAXsDtVN7IMxRQQAEFFFBAARBwOwU4lhRQQAEFFFBAgbyA26m8kWcooIACCiiggAIg4HYKcCwpoIACCiiggAJ5gZKNjY38WZ6hgAIKKKCAAgookBDwr1MJGA8roIACCiiggAJPJ+B26umcPEsBBRRQQAEFFEgIuJ1KwHhYAQUUUEABBRR4OgG3U0/n5FkKKKCAAgoooEBCwO1UAsbDCiiggAIKKKDA0wm4nXo6J89SQAEFFFBAAQUSAm6nEjAeVkABBRRQQAEFnk7A7dTTOXmWAgoooIACCiiQEHA7lYDxsAIKKKCAAgoo8HQCbqeezsmzFFBAAQUUUECBhIDbqQSMhxVQQAEFFFBAgacTcDv1dE6epYACCiiggAIKJATcTiVgPKyAAgoooIACCjydgNupp3PyLAUUUEABBRRQICHgdioB42EFFFBAAQUUUODpBNxOPZ2TZymggAIKKKCAAgkBt1MJGA8roIACCiiggAJPJ+B26umcPEsBBRRQQAEFFEgIbE4c/3+Hf/CDH8AJ+/btg+r58+dT1ZdffjlViuPnzp2D6qZNtAVsbGyE3qWlpVR1fX09VYrj165dg2plZSVU6+rqoDo9PQ3V7u7uVHVubi5ViuNcbW1thd62tjaoDg8Pp6o///nPU6U4/uMf/xiqW7ZsgerKygpUy8vLU1X+aO7du5dqjONcPXv2LPRu3749Vd2/f3+qFMfhE4/q6uoq9N68eROqQ0NDUK2oqEhVgTda+MHhxb+8vJy6aBz/yU9+kqr+8Ic/TJXiOOBH9erVq9DL7zRY/OzQ3t4OF52ZmYHqtm3boMq309XVlerlj2Z8fDzVGMd7enqgOjs7C9WWlpZU9fLly6lSHOeP5saNG9D705/+FKp///d/n6rW19enSnF8amoKqvBMRRe/ouHl8+qrr8JF+b3E65DXEk94586dqVkdO3YsVYrjDx8+hOqjR4+g+tFHH0F1dHQ0VT1y5EiqFMcnJyehCl9ztDWBES0poIACCiiggAIKPBZwO+VKUEABBRRQQAEFihJwO1UUn80KKKCAAgoooIDbKdeAAgoooIACCihQlIDbqaL4bFZAAQUUUEABBdxOuQYUUEABBRRQQIGiBNxOFcVnswIKKKCAAgoo4HbKNaCAAgoooIACChQl4HaqKD6bFVBAAQUUUECBTCo6p9/eunULBCHP9L333oNGTuXmjOaTJ0/CyCdOnEhVORD2pZdeSjXGcY7e/vLLL6GXY2rv37+f6uW4Xo485pD32tra1EXjOC8JaNy8mRYbh90X3FtTUwNTamhogOrIyAhUIW86umBJcJLygwcP4KIcIz4xMQG9nNEMt1NWVgbDwmMeXRz6zx8rXJQXIee/l5SUwMinT5+G6o4dO1JVXsD8Sw+HDx9ODRvHL168CNW9e/dCFd4S/F7i1yzHl/M7Dd60/MHxO42fdCCKEuTOr62tQW9VVRVUt27dCtWmpiaoQio6v0D427PgJy6mWlpaChOGXwXgFyl/cJBsHpNZWFiAKb3yyiupKr+1+KcpUmPGcf86BTiWFFBAAQUUUECBvIDbqbyRZyiggAIKKKCAAiDgdgpwLCmggAIKKKCAAnkBt1N5I89QQAEFFFBAAQVAwO0U4FhSQAEFFFBAAQXyAm6n8kaeoYACCiiggAIKgIDbKcCxpIACCiiggAIK5AXcTuWNPEMBBRRQQAEFFAABt1OAY0kBBRRQQAEFFMgLUFB1dHNG8PHjx+EKkI37xRdfQGNzczNUOSb14MGD0Ds7O5uqvvjii6lSHL9z5w5UOzs7ofr6669DFcJko+vGjRup3j/8wz9MleI4RA9HFT6aqM7MzMDIHNsNjRsbG1BdWVmBKof5QnIxfOJxOQ7khUj66OVwbUgS37lzJ9zp3bt3oTo5OQnV+fl5qLIhBAGvrq7CsDzhpaUl6OUEZ2j8+OOPobp7926ocgnSqKMRnlZ+LiB3O4blpxWi2KOXf5oCksQ5GJqfVlbi/H140vv7++HTefjwIVTn5uagyiUI14ZSjDkwMAAjj42NQZVfs/A8QtJ9XI5/OAHwo3fPnj0w4TNnzkAVIuD50RgcHIRheaXxywfelvBcxGT41zJgtv51CnAsKaCAAgoooIACeQG3U3kjz1BAAQUUUEABBUDA7RTgWFJAAQUUUEABBfICbqfyRp6hgAIKKKCAAgqAgNspwLGkgAIKKKCAAgrkBdxO5Y08QwEFFFBAAQUUAAG3U4BjSQEFFFBAAQUUyAu4ncobeYYCCiiggAIKKAACbqcAx5ICCiiggAIKKJAXyKSi/83f/A2M8Z//+Z9QbWlpSVVfeOGFVCmOc0xqU1MT9HIJcq6Hh4ehl+OzL1y4AL2cmc63s2/fvtTInCzPw+7duzc1bBznQOTr169DL5QqKyuhWltbC1VOEC4vL0/18kUXFxdTjXGcA3khij16q6qqUiNDfHC0QJx6VDlnmUfetIn+2wnyvnk9cOQx+3Mwdwowjv/5n/85VH/5y19ClZ/H1157DXo/+uijVJWTlDk+m9chh93Dazam+r//+7+pCW/fvj1ViuPwTEWVVxq/S+FHL1pbW2FK8PaOri1btkAvl+B2Dh06BL0cZ88/nMDrEH6KgN/e4+PjMGEOef/ss8+gt6urq7Dq/v37oZG/Pc+ePQu9/EsP8FMEPT09MOypU6egCiV6w0KbJQUUUEABBRRQQIHHAm6nXAkKKKCAAgoooEBRAm6niuKzWQEFFFBAAQUUcDvlGlBAAQUUUEABBYoScDtVFJ/NCiiggAIKKKCA2ynXgAIKKKCAAgooUJSA26mi+GxWQAEFFFBAAQXcTrkGFFBAAQUUUECBogQyMZ7vvPMODN/X1wdVSDK8ceMGNDY2NkKV49omJiagd3R0NFXt7u5OleI4x4WdPn0ael999VWonjlzBqqQ78e5lxzX1t7eDhflkd97771U7/e///1UKY5zCh8HdULIZIwMmaW8WiC+L4blwFJeEhBQCc9FXPTu3bvxf1P/Y6W5ublUYxznFD64naWlJRiW00HBIcbkgFC46H//939D9dixY1DlgMorV65AL7zxKioqoJHTCDlUsLq6GkaGVMzounPnTqqX12ExEZT8sd66dSs1pdLS0lQpjvP3Aj+tMGyUHj58mDqB1wMvb05YXVlZSV00ju/evTtV5ZhrflqvXbuWGjaOw4s0qrwOgYLfS7xalpeXYcIca/zGG2+kelkJMlRTAz4+7l+n2MeqAgoooIACCiiQEXA7lQGyrIACCiiggAIKsIDbKfaxqoACCiiggAIKZATcTmWALCuggAIKKKCAAizgdop9rCqggAIKKKCAAhkBt1MZIMsKKKCAAgoooAALuJ1iH6sKKKCAAgoooEBGwO1UBsiyAgoooIACCijAAm6n2MeqAgoooIACCiiQEcikonOo9Pj4OAzf2tqaqnIaNV90eno6NWwcHxgYgOrs7GyqyjHifKccU8ux0e+++25qSnH86NGjqerIyEiqlD1eVlYG5/T29kIVEoShK0ocqsvJuWy4traWujQHEw8PD6ca4zjnXHPIe1tbW2pkHpanxBflj4ZTsLdt25aaMB+HXxqIRl5p/KTDdTkrmaOf4SUQV+zv74frNjQ0pKocn/3222+nGuM4/zQC/yTA/Pw8jAwLhn/8gGPcDx06BBfl3HnonZqagmH5jcevCBg2SpC3zr9DwO80fpZ37twJs4JfR4DA9Bjw008/hWE7Ojqgymvp3r170AvfvBwyzh86f/MePHgQpvTgwYNUFT7xaOGPNTVmHPevU4BjSQEFFFBAAQUUyAu4ncobeYYCCiiggAIKKAACbqcAx5ICCiiggAIKKJAXcDuVN/IMBRRQQAEFFFAABNxOAY4lBRRQQAEFFFAgL+B2Km/kGQoooIACCiigAAi4nQIcSwoooIACCiigQF7A7VTeyDMUUEABBRRQQAEQcDsFOJYUUEABBRRQQIG8QCYVfWNjA8bo6uqC6sWLF1NVTkXnfGHIm47Lcb7wgQMHUlM6depUqhTHa2pqoHr8+HGoQpJydPX19UHvF198kaq++OKLqVIcn5iYgCok2EYXx9RybDRcdGlpCaqcpMyZ6Tt27EiNzInSXOVAXs7VhQVTV1eXmm0c52Rzji3mkHHOPYcnHcKFY8KPHj2C24HA+ujioHYYtrOzE6pwL9HFH+vY2BiMDK8X+BGIGJCzqmG1RO+5c+dgSvwCaW9vT/XyenjppZdSjXG8mIDy06dPp0ZmQ46zZ8PUFR8fh/hyXmnnz5+HkTm+nA1PnDiRGvnkyZOpUhzntzcb7tu3D0bmb154D/C7nb+q+Hncvn07TBiuy7+twm88uKJ/nQIcSwoooIACCiigQF7A7VTeyDMUUEABBRRQQAEQcDsFOJYUUEABBRRQQIG8gNupvJFnKKCAAgoooIACIOB2CnAsKaCAAgoooIACeQG3U3kjz1BAAQUUUEABBUDA7RTgWFJAAQUUUEABBfICbqfyRp6hgAIKKKCAAgqAgNspwLGkgAIKKKCAAgrkBTKp6JxYyunDkFXN84J81WjkcO2mpiYY/MMPP0xVITA9WjiulwOyIXI3Rn7hhRdSU4rj3/72t1NVbrxz506qMY5zJmxlZSX0cqg3NPJHw3nfFRUVMDKE7JeVlUEjfzSjo6PQ29PTA1XOnYfGhYUFqC4uLkKVY4s5Mx0ShO/duwcX3bSJ/pMMho0xS0tLYWQocXY8V/k3DFZWVuC68AsHd+/ehUYu8cd6+PBhaGd/eFo///xzGJZXy+TkJPRyqDQEtfNKa2lpgYsWnLAfY+7cuTM1Mq8l/l4oKSlJDRvHOzo6oHr9+vVUlZVmZmZSjXF8//79UOWgfF4SsIbZ8ObNmzAlTqXn74Xm5ubUyDyly5cvpxr5OL0KudOqAgoooIACCiigQAi4nXIZKKCAAgoooIACRQm4nSqKz2YFFFBAAQUUUMDtlGtAAQUUUEABBRQoSsDtVFF8NiuggAIKKKCAAm6nXAMKKKCAAgoooEBRAm6niuKzWQEFFFBAAQUUcDvlGlBAAQUUUEABBYoScDtVFJ/NCiiggAIKKKBAJhX9m9/8JhhxkvWVK1dSvRzfzHGxnKTMocZvv/12akocCFtbW5tqjONDQ0NQ5YBsDijv7e1NjQwptNGyvLycaozjLPzuu+9C74kTJ6AKJb5TXksc/QxxvZAKHVMdHx+HCcOw0QXhzlGtrq5OjcwX5VR0rm7fvj110TjOCcIQtcxraXV1FS7KCfscrg3Dct404MeYn332GYx86NAhqPb19aWq/BMRa2trqcY4Do95VKempqB3fX0dqufOnUtVb9++nSrFcZ4wZHZHL6ylqO7duzd1Xf5eOHXqVKoxjv/Zn/0ZVLkEv47AP8LBjwavQw67/81vfpOaM7+9ORV9bGwsNWwc51fESy+9BL3wAuenlV8RLMybgZGRkdSE+e1948aNVCMf969T7GNVAQUUUEABBRTICLidygBZVkABBRRQQAEFWMDtFPtYVUABBRRQQAEFMgJupzJAlhVQQAEFFFBAARZwO8U+VhVQQAEFFFBAgYyA26kMkGUFFFBAAQUUUIAF3E6xj1UFFFBAAQUUUCAj4HYqA2RZAQUUUEABBRRgAbdT7GNVAQUUUEABBRTICGRS0TdvphN27doFw1dVVaWqnAL84MGDVGMc37p1K1Tv378P1atXr6aq3d3dqVIc//Wvfw3V5557DqqffvopVPfs2QPVjz/+OFXlrOT+/v5UYxz/4IMPoAqxxdH1i1/8ItV74MCBVCmOc7I5rJboLSsrg5GhytnxnOjNgcitra0wJY7rhUZI8o0uNuRQY36WIdSY74Wfx4cPH8LNNjY2QhVK7NDV1QW9fDucwgzD8lpih9OnT8PI/MHBOy3GbGpqSo3ML5DXX3891RjH+RXBsd2QLH/z5k246He+8x2o8gscGqNUX1+fOmH37t2pUhw/c+YMVPnRgCj2GLOmpiY18m9/+9tUKY7zbzk8evQIelmYHw34VQB+p/EvPfDPnPT09MDtwCv64sWL0MgbG2j0r1OAY0kBBRRQQAEFFMgLuJ3KG3mGAgoooIACCigAAm6nAMeSAgoooIACCiiQF3A7lTfyDAUUUEABBRRQAATcTgGOJQUUUEABBRRQIC/gdipv5BkKKKCAAgoooAAIuJ0CHEsKKKCAAgoooEBewO1U3sgzFFBAAQUUUEABEKCUzmjjuDzOE3vxxRdTF+bG1157LdUYxy9cuADV8vJyqEL6HOd67dixA4YdHByEKif4vfPOO9A7MzOTqnK+WXV1daoxjvOUINExerdv3w4jQ4nX0traGvTy7Wzbti3VOzk5mSrFcXbgtQTZoTFybW1t6rpnz55NleL4vXv3oMpTYmEO+YQUSp4S3GncCAybvVlw4DTCDz/8EHo5OPfrr7+G3rq6ulSVQw5HR0dTjXG8ubkZqtevX4cqZ5ZCOu6hQ4dgWA5I5Jt9/vnnYeTOzs5UlZc3L+CC30sxGQh/5rBNyP+MYVtaWlJ3Gsc5ThbeafxMwVdGXPR73/seTAkcogumFFVY4efOnYOL8gLmDNu7d+/CyPv3709V+Zni/NXUmHHcv04BjiUFFFBAAQUUUCAv4HYqb+QZCiiggAIKKKAACLidAhxLCiiggAIKKKBAXsDtVN7IMxRQQAEFFFBAARBwOwU4lhRQQAEFFFBAgbyA26m8kWcooIACCiiggAIg4HYKcCwpoIACCiiggAJ5AbdTeSPPUEABBRRQQAEFQMDtFOBYUkABBRRQQAEF8gKZVHQOD21tbYUr/Pu//3uqevTo0VQpjv/sZz+D6ltvvQVVDjW+dOlSqpdzty9fvpxqjOOcEVxMXC9kE/NFIb45JsxRs5CkHL1zc3NAASWOEedA3i1btsDIENvNCe9c7ejogIv29/dDFW5namoKGnlKHBvd29sLI8/OzkIV8oUfPHgAjZzOX1lZCb38sUIjX5RDxj/66CMYeWBgAKqff/55qnrkyJFUKY5PTExAlZ+4N954A3r5Wa6pqUn1vvLKK6lSHOdVym9+7j1//nzqupCsHS1LS0upxjj+H//xH1D9+c9/DtWmpqZU9dSpU6lSHOdUdL4dfjTgm7e7uxumxG9+vuj6+jqMPDIyAtXx8fFUlZ8p/l2QY8eOpYaN4xxfDmnsEM0fw/JrFubjX6cAx5ICCiiggAIKKJAXcDuVN/IMBRRQQAEFFFAABNxOAY4lBRRQQAEFFFAgL+B2Km/kGQoooIACCiigAAi4nQIcSwoooIACCiigQF7A7VTeyDMUUEABBRRQQAEQcDsFOJYUUEABBRRQQIG8gNupvJFnKKCAAgoooIACIOB2CnAsKaCAAgoooIACeYFMKjoPwMHce/bsSbVz9POuXbtSjXH8ypUrUOUgWkh9ffvtt2HYtbU1qJaUlEC1q6sLqu3t7VCF2Og7d+5A4759+6DKScoQyBtjbmxswMhQevjwIVQ5iJYz66HKKw2yy2OqHOP+6NEjuB247urqKjTysG1tbdDLq7SxsRF6FxcXU1VYhNHCa4lvJ3XF7HGIsY5efh6PHz8O40O4c3S9+eabqV5e3rt37041xnH+aP7qr/4Ken/zm99AFeLLYYnGgJyhPzY2Bhf9r//6L6jC653f7fx7DPzmh/lECRY/vwQ4f59fwvxLG/BTBMXcKb98+vr6AOrq1atQha85+DGSGPBb3/oWDMtvPH75FPy9wIsfZutfpwDHkgIKKKCAAgookBdwO5U38gwFFFBAAQUUUAAE3E4BjiUFFFBAAQUUUCAv4HYqb+QZCiiggAIKKKAACLidAhxLCiiggAIKKKBAXsDtVN7IMxRQQAEFFFBAARBwOwU4lhRQQAEFFFBAgbyA26m8kWcooIACCiiggAIg4HYKcCwpoIACCiiggAJ5gUwqOsSIx9icINzS0pK6/pEjR1KlOP7OO+9A9bvf/S5UeUqTk5Op3tra2lQpjnMU+EsvvQS9nAl7+PBh6K2pqUlV+aOBQNgYkNOHOQUbcpZTU318HHJ+44SKigpo55xryHfmrGq+6Pbt22FK7HDv3r1UL8fZM35VVVVq2OxxWPzRy1AwOOeeszAMy6Xh4WE4Ydu2bVCtrKyE6u///u9D9csvv0xV/+RP/iRViuNTU1NQ5XR+fqdxFD48Gu+99x5MaevWrVDlgHKO3oY08JWVFbgoryVOlodhowQLBr7ForEYJb4deIFwwn5PTw/cbH19PVT5seKAeEgS5yXKi5/feHV1dXA78PMe/CMc/IqAK/rXKcCxpIACCiiggAIK5AXcTuWNPEMBBRRQQAEFFAABt1OAY0kBBRRQQAEFFMgLuJ3KG3mGAgoooIACCigAAm6nAMeSAgoooIACCiiQF3A7lTfyDAUUUEABBRRQAATcTgGOJQUUUEABBRRQIC/gdipv5BkKKKCAAgoooAAIuJ0CHEsKKKCAAgoooEBeIJOKzhnNHAR869at1PUHBwdTpTj+8ssvQ3XzZpozZzRDkvXdu3fhol1dXVCdnp6G6sDAAFQhZzm6mpubU70LCwupUhyHQNio8sfa2dkJI4+OjkIVSpykXFpaCr3Ly8tQhbz1paUlaORQY06Wh4vGFeFmOTOaFzCnw3MvPziQis4OHHnMK41TsOGD6+vrg2pDQwNUb9y4AdWvvvoKqvDbCWfOnIHGixcvQpWXN2c0c2Y6+HNQO8w2Srdv34YT4DUbXfDQ8c9LcN43C8Nso3Tz5s3UCbyW+M3Pier8ocPzWMxFC14t4QPvtKjCrPg3RXbs2JHCj+OcmQ5rKXrhq+rgwYNwUX63Q6N/nQIcSwoooIACCiigQF7A7VTeyDMUUEABBRRQQAEQcDsFOJYUUEABBRRQQIG8gNupvJFnKKCAAgoooIACIOB2CnAsKaCAAgoooIACeQG3U3kjz1BAAQUUUEABBUDA7RTgWFJAAQUUUEABBfICbqfyRp6hgAIKKKCAAgqAAEViRlt9fT00f/DBB1A9fPhwqsoxWZD/GQNy9F9HR0fqonF8ZmYmVeVQte7u7lRjHB8bGyu4ylFvELXH+XIQ3xdTrampgQnfu3cPqpy6Bo1lZWVQXVxchGpjYyNU4bNbX1+HxqqqKqjyRTn3FbI6y8vLC74oJ2pu27YNRubcV2jkoE5eS/y08nsApsQfHEfjclbkhQsX4LrDw8OpKicKbtpE/+HKa2l2djZ10TgOyaJRhRhbbqyrq4OLcozq8ePHoRfCFfllyBP+0z/9U7gol2BkDixlJYjijPnw4ofoS46g5Ivy9wLnr3KMJ7/WwB++46KLX8IjIyMw8s6dO1NVWITRwkqpMeM4PeTQZkkBBRRQQAEFFFDgsYDbKVeCAgoooIACCihQlIDbqaL4bFZAAQUUUEABBdxOuQYUUEABBRRQQIGiBNxOFcVnswIKKKCAAgoo4HbKNaCAAgoooIACChQl4HaqKD6bFVBAAQUUUEABt1OuAQUUUEABBRRQoCgBt1NF8dmsgAIKKKCAAgpkUtEhmzXsOOea84WBnqPYOUT1+vXrMHJ/f3+qeu3atVQpjkNsblQ5OZfjyzk2urS0NDUr/mh4wpwVfurUqdRF4/iePXugCqXNm2mxdXZ2FtwLEeSPHj2CYXkBszDkTccVIcmaI7A5Z5nTwHnCXOXoczAE/OjinGUONYaL8mw5oJyXd1NTE1wXUun5XjiruqurCy7KP7rACc7Nzc2pkfmXHjizm5Vg8cdkIEafn6lf/epXqXuJ46+99hpUn3vuOajC+/DVV1+FRn7zw681xJhw0ajCi4tfIMDLw0b19OnT8X9T/+PHClLR4VssrsU/GFBSUpKaTxzn39KA34F4+eWXYdizZ89CFUr+dQpwLCmggAIKKKCAAnkBt1N5I89QQAEFFFBAAQVAwO0U4FhSQAEFFFBAAQXyAm6n8kaeoYACCiiggAIKgIDbKcCxpIACCiiggAIK5AXcTuWNPEMBBRRQQAEFFAABt1OAY0kBBRRQQAEFFMgLuJ3KG3mGAgoooIACCigAAm6nAMeSAgoooIACCiiQF6Cg6uienp6GMTh6G8JbOdz5s88+g4ueOHECqoODg1CFYO6+vj5o5Ch2GDbG5Jzr9vZ2uO7JkydT1Z07d6ZKcZzzbTs6OqD3W9/6FlTv378PVSjdu3cPqhUVFVAtOL6cw505sxtCdWOqnAYOgciVlZVwp8VkBEOSMlzxcQnyvvmD448GHOK63Atznp+fhyq/XjhGnOPLZ2ZmUtf94z/+41Qpjg8PD0OVF//AwAD08ocOOeMtLS0wbGNjI1T5NyR4wv/2b/+WGnnXrl2pUhyHhPeofvLJJ9D7l3/5l1CFRHt4LmJAXsD85v/6669hSpBZz7/88fzzz8OwvLzb2tqglyPI4ZGEe4nLQWNU+QcD+FmGxX/58mW4U34JUyPULCmggAIKKKCAAgpkBfx/9mWJPEEBBRRQQAEFFCABt1OkY00BBRRQQAEFFMgKuJ3KEnmCAgoooIACCihAAm6nSMeaAgoooIACCiiQFXA7lSXyBAUUUEABBRRQgATcTpGONQUUUEABBRRQICvgdipL5AkKKKCAAgoooAAJuJ0iHWsKKKCAAgoooEBWIJOKzqmjnJwLSeL79u2DmW3duhWqGxsbUO3s7IQqpN82NDRAI+e/l5aWQu/s7CxUx8bGoNrb25uqfv7556lSHOcgWk42r6+vh5E53xkaOV94bW0NejncHLL7OXJ3z549cNHdu3dDlRPVYcJXrlyBYVdWVqDKHxwn+3PUL8Qlw73EVAseNnr5dsCBn6mmpibohfdSdL3yyivQCy8fDgrnF+mdO3fgohyjD41RglBpfoFwnD2/8TigHFYpPxr80fDvYbDSwYMHUyfwTwLw0wpfN3G5ycnJ1EXjOLz5+d2+Y8cOGJZ/wOOLL76AXr4dWDA8JV5LQ0NDMKW5uTmo7t+/P1UdHR1NleI4/9IANPrXKcCxpIACCiiggAIK5AXcTuWNPEMBBRRQQAEFFAABt1OAY0kBBRRQQAEFFMgLuJ3KG3mGAgoooIACCigAAm6nAMeSAgoooIACCiiQF3A7lTfyDAUUUEABBRRQAATcTgGOJQUUUEABBRRQIC/gdipv5BkKKKCAAgoooAAIuJ0CHEsKKKCAAgoooEBeoARyfvPdnqGAAgoooIACCjzzAv516plfAgIooIACCiigQHECbqeK87NbAQUUUEABBZ55AbdTz/wSEEABBRRQQAEFihNwO1Wcn90KKKCAAgoo8MwLuJ165peAAAoooIACCihQnIDbqeL87FZAAQUUUECBZ17A7dQzvwQEUEABBRRQQIHiBNxOFedntwIKKKCAAgo88wJup575JSCAAgoooIACChQn4HaqOD+7FVBAAQUUUOCZF3A79cwvAQEUUEABBRRQoDgBt1PF+dmtgAIKKKCAAs+8gNupZ34JCKCAAgoooIACxQm4nSrOz24FFFBAAQUUeOYF3E4980tAAAUUUEABBRQoTsDtVHF+diuggAIKKKDAMy/gduqZXwICKKCAAgoooEBxAm6nivOzWwEFFFBAAQWeeYHNLPCjH/0ITmhoaIDq7Oxsqtrc3JwqxfGJiQmorq+vQ7Wnpweqi4uLqWpVVVWqFMdv374N1ZmZGaiWlpZC9bnnnoNqWVlZqrp169ZUKY4vLCxAlScMjVEqLy9PnfB3f/d3qVIc//GPfwzVkpISqPKnAx8rrxb+aGpra2FK09PTUN28Oflk8ZT4ThsbG+Giy8vLUF1bW4MqlHjx37t3D3rb2tqgWldXB9Uf/OAHqeo//MM/pEpxvLKyEqrj4+NQ5XfaxsZGqpefuPb29lRjHH/w4AFUgGTY4wAAHbBJREFU7969C9XPPvsMqlu2bElV33jjjVQpjp84cQKq/Io+efIk9J45cyZV5Zchv/HgiYvLwVriKr8E+vv7U/cSx3lKbLi6upoaGQCj5fjx46nGOM5riSc8NzcHI8O7lN/tbMiPFXwZxVTBEDYn0VhfXw93+sMf/jBV9a9TKRmPK6CAAgoooIACTyXgduqpmDxJAQUUUEABBRRICbidSsl4XAEFFFBAAQUUeCoBt1NPxeRJCiiggAIKKKBASsDtVErG4woooIACCiigwFMJuJ16KiZPUkABBRRQQAEFUgJup1IyHldAAQUUUEABBZ5KwO3UUzF5kgIKKKCAAgookBJwO5WS8bgCCiiggAIKKPBUAsns5sfd1dXVMAwHIjc1NaV6Ias3Wjj9lqv3799PXTSOQ1wyZ1XX1NTAsJxG3dHRAb2PHj2CKqS+jo2NQeO1a9eg2tnZCVU2hCnBmFHiRl4SHOYLqbstLS0wq6WlJahyVjU0Runhw4epE/ipgXuJASHnN6rbtm1LXTSOcyo6BCLz4t+1axdclNcSR5DDsJwdPzo6Cr0cUM7rED4dfoHwSuvq6oIJw4s0uuCdFtUvvvgiNfLk5GSqFMc5ehsisKN3eHgYRoZwbX637927F4Y9d+4cVLkEnw5/rPCYxxWL+fEP+NGF7u5uuB3+MuInbtMm+vMKbwbgoeOL8k90wGoJBHhrAVGU+MsIfvyAhyU+7rSqgAIKKKCAAgooEAJup1wGCiiggAIKKKBAUQJup4ris1kBBRRQQAEFFHA75RpQQAEFFFBAAQWKEnA7VRSfzQoooIACCiiggNsp14ACCiiggAIKKFCUgNupovhsVkABBRRQQAEF3E65BhRQQAEFFFBAgaIE3E4VxWezAgoooIACCiiQSUVfWVkBIw5graurS/XOzs6mSnF8aGgIqhxqzCnYEEjN8c3swMm5HPULOcuBMD8/n6LgMNmKiopUYxzni3KVU5jhopzKDcHEMSZ/OrDSOLaYw7X5Q+egdvDnGPHFxUUw5NthJYgtjiu2tbWlrssXhWcqBuRHg3tT84njHFjPmd384HBA+dWrV1Oz4g8OlmgMWFZWlho2jvM7jX9WAd60/PZm4dbWVpgwx7gvLCykem/cuJEqxXH+eQn+SQAYNkr8oUMvPxq1tbXQyx86pPPzB8fvZxg2psqvCM5Mb2xsTN0sfwPy7fCXEY8M/vy0Tk1Npe6Fj/vXKfaxqoACCiiggAIKZATcTmWALCuggAIKKKCAAizgdop9rCqggAIKKKCAAhkBt1MZIMsKKKCAAgoooAALuJ1iH6sKKKCAAgoooEBGwO1UBsiyAgoooIACCijAAm6n2MeqAgoooIACCiiQEXA7lQGyrIACCiiggAIKsIDbKfaxqoACCiiggAIKZAQyqeiQKxoD19fXw/A3b95MVTnJd2BgINUYxzlfuLm5GXrHx8dT1Tt37qRKcZyr/f390MsJwmw4PDycGnnzZvrsOP2Ww2Q5fZiTi1OzjeOcig6hutHLtwPJudx44cIFmDCvtM7OTuiFm+X89+7ubhiWw3wnJiagd2NjA6rT09Opak1NTaoUxzmCnHPnecJwUTbkO+XMbo7C3717d2pWEJgeLZyhf+TIkdSwcZwfjStXrkAvBOXzS7i6uhqGPXDgAFQ/+eQTqMJLuLe3Fxo5YZ8fDRg2SpOTk6kTADBaeML8muU1DAHlPCV+gfDvEMCLNG4W4uyjCuHm/CJdXV1N4cdxDrvnKtws3ynvImC2/nUKcCwpoIACCiiggAJ5AbdTeSPPUEABBRRQQAEFQMDtFOBYUkABBRRQQAEF8gJup/JGnqGAAgoooIACCoCA2ynAsaSAAgoooIACCuQF3E7ljTxDAQUUUEABBRQAAbdTgGNJAQUUUEABBRTIC7idyht5hgIKKKCAAgooAAJupwDHkgIKKKCAAgookBegZO3o5ujt+fl5uAKE2HJcLAeFt7e3w0VnZmagevny5VSVw7537tyZaozjhw4dgiqnokMgb4wJsdGQQhuNED0cVb4dTt3liFtw4IDyubk56GXDTZuS/1XAkbucNz01NQVT4sUPyfKVlZUwLMSpR9etW7eglxc/h5vDcuKM4La2NpgSKz148AB6oVReXg5VXqK80nhJwPuQeflOIZI+bpPXMFNAZj2/8d544w0Qnp2dhSq/osvKylK97AAh1zEgf3CpKz4+3tPTkzqBlfhXQzgKP3XFx8chs76vrw964Ssjuvbs2QO9Y2NjUIXFH10QUM7PI1eHhoZgSrC8owseOk5F52FhPsnvIeixpIACCiiggAIKKPBEwO3UEwr/oYACCiiggAIKFCLgdqoQNXsUUEABBRRQQIEnAm6nnlD4DwUUUEABBRRQoBABt1OFqNmjgAIKKKCAAgo8EXA79YTCfyiggAIKKKCAAoUIuJ0qRM0eBRRQQAEFFFDgiYDbqScU/kMBBRRQQAEFFChEwO1UIWr2KKCAAgoooIACTwQyqegrKytPTv3df3Bcb0NDw++2PM0RSJSO9tu3b8MgHEQ7MjKS6uXc7V27dqUa43h3dzdUl5aWoApTiq7R0dFULw/LE+Z8YQgZj8lA1Gxqqo+PV1dXwwkcU8uJ6rBKATAmAwHNUeV0/v7+frgdEH748CE0LiwsQBWGjS6Ocec0dkiy5lR0nhJ/rPwCAQdehLAeYkxeh9wLN8uB9ZyZzkrHjh0DCn4PQL4zx2fzsPyzFhCQHTcC65/f3nAvMSy/IgAwSvCdwqHzvJb4O+XLL7+EWcF1YbYx4JEjR2BYfr3wK2JjYwNGhm8NXt7wTMXl+BUBF41eeIHDj0BEI/80BSFAzZICCiiggAIKKKBAVsD/Z1+WyBMUUEABBRRQQAEScDtFOtYUUEABBRRQQIGsgNupLJEnKKCAAgoooIACJOB2inSsKaCAAgoooIACWQG3U1kiT1BAAQUUUEABBUjA7RTpWFNAAQUUUEABBbICbqeyRJ6ggAIKKKCAAgqQQCbGk1O/aODf+73Z2dnUCd/4xjdSpTjO0Yuc6/Xuu+/CyBDb2NfXB42HDx+GKsSFRdfY2Bj0zs3NQRXSxjgYELLy4nKcfgbzidL9+/f5hFSVQyZ37NiRaozji4uLUF1fX09Vh4aGUqU4fvToUaiyEuc9QpIhx9YNDg7ClOCZii64aFQ55xACCauqqmBKvID5Q+cpwUX5o4HHPMbkUEGuwquJFzCvQ57wzZs3gYLfAxx9CcPyC4RXGgc4NzY2pq7LXzf8IuX4ytQVHx+H27l+/Tr0Pvfcc1DlUl1dHZwAiaYAGANyOiuk9UYvL354zUYvLBh+4/GE4aOJi3K1paUlzvn//o9Tavk1+/8d8PFB/zoFOJYUUEABBRRQQIG8gNupvJFnKKCAAgoooIACIOB2CnAsKaCAAgoooIACeQG3U3kjz1BAAQUUUEABBUDA7RTgWFJAAQUUUEABBfICbqfyRp6hgAIKKKCAAgqAgNspwLGkgAIKKKCAAgrkBdxO5Y08QwEFFFBAAQUUAAG3U4BjSQEFFFBAAQUUyAtkUtE5z5STxGtra1PXr6ioSJXi+OTkJFQ//PBDqHIJkou///3vQy/n/J4+fRp6T506BdWRkRGoNjc3p6pQipa2trZUYxznNOoHDx5AL1ehsaOjA6qbN9NS5HUIEbewCGMyGxsbMCUOu6+srIReyEyHUgzIwcSPHj2Ci3J8OUdvb9++PTUy5B1Hy/z8fKoxjnOGPnxwMGaUOA2ZY6Mh2TxG5iWxa9eu1MTGx8dTpTg+MDAA1UuXLkG1u7sbqjt37oQqhN2fO3cOGj/77DOovvjii1BtbW2FKqxh/l7gGPEbN27ARbl0+/bt1AnFLGB+cHilwdsSAtPjLqAxqsPDw6k7jeP88tm6dSv0dnV1paocZ5/qenycXxG8A4Ennb/F+BUNE/avU4BjSQEFFFBAAQUUyAu4ncobeYYCCiiggAIKKAACbqcAx5ICCiiggAIKKJAXcDuVN/IMBRRQQAEFFFAABNxOAY4lBRRQQAEFFFAgL+B2Km/kGQoooIACCiigAAi4nQIcSwoooIACCiigQF7A7VTeyDMUUEABBRRQQAEQcDsFOJYUUEABBRRQQIG8AEVRR/fCwgKMsby8DFWI652bm4PGO3fuQPX8+fNQff3116H69ttvp6qcGT01NZVqjOOc+gqRu9ELQe1RheTclpYWmBIn50IwcYzJ4dqrq6twXShxvjAvCa7CKuU0aphtlDhyl+N6h4aGUoNfuXIlVYrjHNe7aRP99w8vieeeew6u29nZmaryE8ex/hwMzWH3qfnEcV4PPCX+WK9evQrXhZ8TgMD0GHBxcRGGnZ6ehupHH30EVUijjq6jR4+mei9fvpwqxXEW5mcZothjZPg5h5MnT8KUnn/+eaju27cPqlyCtwSH/sNTE1dsb2+H6/J7AN5p/IXS1NQEF+WfE+A4+6+//hpGht+QgG+xGJDfaRyFz68XoOA9Bv8ICiDQ2xnaLCmggAIKKKCAAgo8FnA75UpQQAEFFFBAAQWKEnA7VRSfzQoooIACCiiggNsp14ACCiiggAIKKFCUgNupovhsVkABBRRQQAEF3E65BhRQQAEFFFBAgaIE3E4VxWezAgoooIACCijgdso1oIACCiiggAIKFCXgdqooPpsVUEABBRRQQIFMKjrHgx44cAAEIZj7woUL0PjBBx9AFRJso2v//v3Qe+jQoVQVZhstnGB76tSp1LBxnEfmfOHGxkYYGUockL22tga9g4ODUN26dStUocS58xzUvrKyAiNDcm55eTk0cgowJ+fylCAVHeYTJV4Pvb290N7d3Q3VPXv2QBUysmdnZ6GRY9x58e/evRtGhhKHO/Mr4tKlSzAyrKXogt+BYCX+4QT+0GG2UYLc86ieO3cu1d7R0ZEqxfH19XWo/vrXv4bqm2++CVUIN+eUfP7W4LB7mE+U4FnmSPqenh4Yuba2FqocZw8/RcA/pFFSUlLwRfnnBCorK2FkiHEH3hiQ1yGn0s/MzMCU4OUPP28QA/KPoMAV/esU4FhSQAEFFFBAAQXyAm6n8kaeoYACCiiggAIKgIDbKcCxpIACCiiggAIK5AXcTuWNPEMBBRRQQAEFFAABt1OAY0kBBRRQQAEFFMgLuJ3KG3mGAgoooIACCigAAm6nAMeSAgoooIACCiiQF3A7lTfyDAUUUEABBRRQAATcTgGOJQUUUEABBRRQIC+QSUWvqamBMTZtot0YBCJz6ujDhw/hohCqG12HDx+GXoje5in98pe/hGE5zJeT5Tnfub+/P3Vdjpqdnp5ONcZxzrfljObm5mYYGUqQKB1dfDu80iACvr6+HqbE+HNzc9D79ddfQxWyiTkdfmNjA4bl6Gf+SQCOL19cXExdlxPeoTEG5EeDKVLzieMcQQ6NUWpra4MTNm+mVyLcLMepT05OwkXhVRld/LFyMDSkP/N64A/9j/7oj+B2qqqqoApPOpRiQP7QC/61hhgZJsy/NDA+Pg53yvHlpaWl0AsfHL9Iq6urYVju5a97XjDw2fETxz8+wReF78dAGB4eTlHwz42wQ2rMOE77IWizpIACCiiggAIKKPBYwO2UK0EBBRRQQAEFFChKwO1UUXw2K6CAAgoooIACbqdcAwoooIACCiigQFECbqeK4rNZAQUUUEABBRRwO+UaUEABBRRQQAEFihJwO1UUn80KKKCAAgoooIDbKdeAAgoooIACCihQlABl1sXAnZ2dMDxHvd26dSvVOzg4mCrF8e3bt0OVQ+327t0LvefOnUtVv/zyy1QpjnMKH0e9HTx4EEbu7e2F6u3bt1NVDkiEwNIYcGRkJDVsHOckQw5Ag2F5LcFHE2Ny5B1kZnIkKafwra2twe1wbOPly5dTvZxdyTm0u3btSg0bx9vb26H6/vvvQxWeVl5pHJTKy7vgSNiBgQG4F86w5dhAvh3IfeUc4PX1dZgwp9TCRWPMiooKGBlSECG7MgYcHR2FYW/cuAFVDvlsampK9fLTCmm9qQGf8jhcl9cDRzTz88irFF6zp06dgvvip7W2thZ64UUaXXw7S0tLqZH5NdvV1ZVqjOOsVMzNwkX56wYa/esU4FhSQAEFFFBAAQXyAm6n8kaeoYACCiiggAIKgIDbKcCxpIACCiiggAIK5AXcTuWNPEMBBRRQQAEFFAABt1OAY0kBBRRQQAEFFMgLuJ3KG3mGAgoooIACCigAAm6nAMeSAgoooIACCiiQF3A7lTfyDAUUUEABBRRQAATcTgGOJQUUUEABBRRQIC+QSUW/e/cujMGx0RDIy1GznL7KIeNzc3Mw4YsXL6aqnIpeWVmZaozjnIrONwthsjHy1q1bU9flBFuOi+U0as5ZXllZSU2Jjy8uLsIJHAy9ZcsW6AV//uCGh4dhWIikj66JiQnohRRszj3fs2cPDHvo0CGoXr16Far8aEAKNq+lHTt2wEW5d2xsDHqhNDs7C1VeLVzlzHp4WjkgGx7kuBF+ljnGnbPCDxw4kILicO2+vr5UYxyHGPGo8o8uwLBsyC+Q+fl5GJlL1dXVqRN4AcNvCcSA/HrhHwxoa2tLTYlT8nkB87udf+mBheFXAThkHN48IcA3yzsQ+KoqJh0+9bnEcf86BTiWFFBAAQUUUECBvIDbqbyRZyiggAIKKKCAAiDgdgpwLCmggAIKKKCAAnkBt1N5I89QQAEFFFBAAQVAwO0U4FhSQAEFFFBAAQXyAm6n8kaeoYACCiiggAIKgIDbKcCxpIACCiiggAIK5AXcTuWNPEMBBRRQQAEFFAABt1OAY0kBBRRQQAEFFMgLZFLROcwXUkfjypAn29TUBFM7fvw4VDn19ebNm9A7Pj6eqnJyK2TUxoAcTMx535wJC+Ha/NFw9DOnUW/fvj2lFMc5iBYaISU/ujZvpqVYVVUFI8Nnx8HEX3zxBQzLieocMg5B7Rz6zxe9cuUKTPiTTz6B6uDgIFQLflphzCiVl5fDCRAyDl1R4l9raG1thfadO3dCFV4R0bW8vJzq5ZxlfoFMT0+nho3j/MTx+3BoaCg1Mjw10cKh/3xRHhmCuTl3mzPTYQGnBJ4ch9vhlfbo0aMng/zuP2pqan734FMe2djYSJ3Jd8qviFdffTU1bBznNczp/EDBof+cDs9LApTiduA9ABnuWQcA9K9TgGNJAQUUUEABBRTIC7idyht5hgIKKKCAAgooAAJupwDHkgIKKKCAAgookBdwO5U38gwFFFBAAQUUUAAE3E4BjiUFFFBAAQUUUCAv4HYqb+QZCiiggAIKKKAACLidAhxLCiiggAIKKKBAXsDtVN7IMxRQQAEFFFBAARBwOwU4lhRQQAEFFFBAgbwARVFH9+rqKozB0aKQINzZ2QnDNjY2QpVjxH/1q19BL6SBc4w45KvG5ThMloO5OdcVUtE5K5nDtTlRveCwe5CPEjtwUD7fDgTywiKMKXFmNwdD19XVwf3CCu/q6oJGTofnxX/jxg0YGdKoowvWP6fk8yuCI+A//fRTmDCU+HcI+Jm6desWjPzw4UOoQth9MU8Nh/7D8o6p3r59GyYMLy5+CezatQuG5azwL7/8Enrh0eBnCsaMEj843AuLn9fDjh07YGQO/R8YGIBe+BJkfF78/NMU7M8h7/C2rK6uhjudnJyEanNzM1T5R1BghfObf3Z2Fi4KJf86BTiWFFBAAQUUUECBvIDbqbyRZyiggAIKKKCAAiDgdgpwLCmggAIKKKCAAnkBt1N5I89QQAEFFFBAAQVAwO0U4FhSQAEFFFBAAQXyAm6n8kaeoYACCiiggAIKgIDbKcCxpIACCiiggAIK5AXcTuWNPEMBBRRQQAEFFAABt1OAY0kBBRRQQAEFFMgLZFLR79+/D2Pcu3cPqpBcDOHCMSCnABcTrg0Z2aWlpXAve/bsgSpkl0dXfX099HKSNcyqoaEBhuWs6m3bthXcy7m6MCxnx3OoNAwbJYgJnpmZgV5I8o0ujjwuKyuDkY8ePZqqcs7v0NBQqjGOf/jhh1CF1RJdHJcMs+JgaA6s5+VdcJI1f3D8PPKE+ccG4H24sLAAH01fXx9U5+bmoMo3u3v3buiFJcFh95cuXYJhIW86ugp+gcNXBkzmcYm/jLgd1iHH+vNK44tynD2sNH6Q+ccP+FnmlQZTijsFf54wbwZGRkaAkb+M4Hth0yb6Q1JPTw9cFEo0KLRZUkABBRRQQAEFFHgs4HbKlaCAAgoooIACChQl4HaqKD6bFVBAAQUUUEABt1OuAQUUUEABBRRQoCgBt1NF8dmsgAIKKKCAAgq4nXINKKCAAgoooIACRQm4nSqKz2YFFFBAAQUUUMDtlGtAAQUUUEABBRQoSsDtVFF8NiuggAIKKKCAAplU9LGxMTDq7++H6uLiYqrKid6QrxoDckzq/Px86qJxHK5bU1MDjRwXy0G0HFDO14UE5+rq6oInzLHFHJd8584duC6UOBWdc5Zh2CjNzs6mToAc/GiBzOiocu45+8MHd/ny5dRs4zgvb15pHMzNKw38OdSYlzfn74+OjgIFlDjc+ciRI9DL77QtW7ZALyhBKQacnJyEYVtbW6FaVVUF1cHBQahCGjsbfvOb34Rh+cHhZHlYTjwl/l6Arxu4kccl+EkGXi38TuMPnWcFid78Ex3wMowrsiGvw6+//hrmXF5enqrytye/SPk3RTioHd6W/NYC/NQ9Pj7uX6fYx6oCCiiggAIKKJARcDuVAbKsgAIKKKCAAgqwgNsp9rGqgAIKKKCAAgpkBNxOZYAsK6CAAgoooIACLOB2in2sKqCAAgoooIACGQG3UxkgywoooIACCiigAAu4nWIfqwoooIACCiigQEbA7VQGyLICCiiggAIKKMACmRhPDiJra2uD0SEzk2Mkr169CsNu2kRbwM2b6Y6gF3IXYzKcpMfJabdv34bb4Uw2SKHkJD2OoFxfX4cpXbx4EaqcugaNnCDHKYgQ/RdXhDC3Bw8ewJR27doFVV78e/fuhd5bt26lqnNzc6lSHIdEwajyKuXIO+7t6upKzWp4eDhViuMciMepmHV1dTAylJqamqDKH1wxE4Znubm5GabEAZUcQckpiPv374frQpIhJx7DMxWX46BOvh1YpfwS4CrfDhBFCb6PONmS1xJPCRJWY0rw4uJ3e29vL9xsY2MjVHml8bMMw/JXBt8OP8slJSVwXUgW5Y8GGuFyUaKtCXdaVUABBRRQQAEFFAgBt1MuAwUUUEABBRRQoCgBt1NF8dmsgAIKKKCAAgq4nXINKKCAAgoooIACRQm4nSqKz2YFFFBAAQUUUMDtlGtAAQUUUEABBRQoSsDtVFF8NiuggAIKKKCAAm6nXAMKKKCAAgoooEBRAm6niuKzWQEFFFBAAQUUoAzx0Nm9ezcYdXR0QBVKkEIbXWNjY9DLQbTQGKX29vbUCZzwzinAHNfLadQclwxQ4+PjqXvJHofA+ujlqFkOsYVLQyR9dA0ODkIvf+iQt85Z1YcOHYKLQlA4dD0unT9/PnUO3+no6GiqMY63tLRAlW+WfzAADBcWFuCiNTU1UJ2amoIqPI/QFSVeSxx5XHDCflwX/HlYfsx5wp2dnaDBTyuE7PN7id948F6KqfIahg/9hRdegDsdGhqC6o0bN6DKJUgD50Rv/mmEb3zjG3Bd/lmLmZmZVC//CAc0xoD8tPKEuReSxPkFkrrNx8f5rcWrFB4r/hbjO4UJ+9cpwLGkgAIKKKCAAgrkBdxO5Y08QwEFFFBAAQUUAAG3U4BjSQEFFFBAAQUUyAu4ncobeYYCCiiggAIKKAACbqcAx5ICCiiggAIKKJAXcDuVN/IMBRRQQAEFFFAABNxOAY4lBRRQQAEFFFAgL+B2Km/kGQoooIACCiigAAi4nQIcSwoooIACCiigQF6ghMN88wN4hgIKKKCAAgoo8GwL+NepZ/vz9+4VUEABBRRQoGgBt1NFEzqAAgoooIACCjzbAm6nnu3P37tXQAEFFFBAgaIF3E4VTegACiiggAIKKPBsC7iderY/f+9eAQUUUEABBYoWcDtVNKEDKKCAAgoooMCzLeB26tn+/L17BRRQQAEFFChawO1U0YQOoIACCiiggALPtoDbqWf78/fuFVBAAQUUUKBogf8Dfv00BEFRPs0AAAAASUVORK5CYII=;" vertex="1" parent="1">
          <mxGeometry x="60" y="50" width="501.07" height="390" as="geometry" />
        </mxCell>
        <mxCell id="1zBleYjPCfKHzwChKZNf-2" value="" style="shape=image;verticalLabelPosition=bottom;labelBackgroundColor=default;verticalAlign=top;aspect=fixed;imageAspect=0;image=data:image/png,iVBORw0KGgoAAAANSUhEUgAAA2YAAALDCAIAAADxEYRAAAAKrmlDQ1BJQ0MgUHJvZmlsZQAASImVlwdUU9kWhs+96SGhJURASuhNkE4AKSG0AALSwUZIAoQSYiCoiIrK4AiOKCIiqCg6SlFwLICMFVEsDAIK2CfIoKCMgwUbKu8Ci+DMW++99fZae50vO/v8Z5+z7rlrXwDIihyRKAVWBCBVmCEO8fGgR0XH0HFDAAJEQAUOgMbhpouYwcEBALGZ8e/2vhfJRuyO+aTWv///X02Jx0/nAgAFIxzHS+emInwa8RdckTgDANQBJK63MkM0ya0IU8VIgQjfm+SEaR6Z5LgpRoOpnLAQFsJUAPAkDkecAACJjsTpmdwERIfkjrClkCcQIixC2DU1NY2H8AmEjZEcJEaa1GfEfaeT8DfNOJkmh5Mg4+m9TBneU5AuSuGs/j+P439baopkZg1DxEmJYt8QZFRGzuxecpq/jIVxgUEzLOBN5U9xosQ3fIa56ayYGeZxPP1lc1MCA2Y4XuDNlulksMNmmJ/uFTrD4rQQ2VrxYhZzhjni2XUlyeGyeCKfLdPPSgyLnOFMQUTgDKcnh/rP5rBkcbEkRFY/X+jjMbuut2zvqenf7VfAls3NSAzzle2dM1s/X8ic1UyPktXG43t6zeaEy/JFGR6ytUQpwbJ8foqPLJ6eGSqbm4E8kLNzg2VnmMTxC55hwAJpIAVxMaCDAOSXJwAZ/FUZkxthpYlWiwUJiRl0JnLD+HS2kGsxj25taW0LwOR9nX4c3tKm7iFEuzkb20QEwEU4MTFxbjbm/xmA0zoAEKWzMaNuAOSR5/76Dq5EnDkdm7pLGOQ9oIC8CdSAFtADxsAcWAN74AzcgRfwA0EgDESDZYALEkEqUvlKkA02gDxQALaDXaAMVIBDoAocBydBIzgHLoNr4BboBD3gIZCCQfASjIL3YByCIBxEhiiQGqQNGUBmkDXEgFwhLygACoGioVgoARJCEigb2gQVQEVQGXQQqoZ+gc5Cl6EbUBd0H+qHhqE30GcYBZNgKqwJG8LzYQbMhP3hMHgpnACvgLPgXHgbXApXwsfgBvgyfAvugaXwS3gMBVByKBpKB2WOYqBYqCBUDCoeJUatQ+WjSlCVqDpUM6oNdQclRY2gPqGxaAqajjZHO6N90eFoLnoFeh16K7oMXYVuQLei76D70aPobxgyRgNjhnHCsDFRmATMSkwepgRzBHMGcxXTgxnEvMdisTSsEdYB64uNxiZh12C3Yvdh67GXsF3YAewYDodTw5nhXHBBOA4uA5eH24M7hruI68YN4j7i5fDaeGu8Nz4GL8RvxJfga/AX8N345/hxgiLBgOBECCLwCKsJhYTDhGbCbcIgYZyoRDQiuhDDiEnEDcRSYh3xKvER8a2cnJyunKPcIjmBXI5cqdwJuety/XKfSMokUxKLtIQkIW0jHSVdIt0nvSWTyYZkd3IMOYO8jVxNvkJ+Qv4oT5G3kGfL8+TXy5fLN8h3y79SICgYKDAVlilkKZQonFK4rTCiSFA0VGQpchTXKZYrnlXsUxxToihZKQUppSptVapRuqE0pIxTNlT2UuYp5yofUr6iPEBBUfQoLAqXsolymHKVMkjFUo2obGoStYB6nNpBHVVRVrFViVBZpVKucl5FSkPRDGlsWgqtkHaS1kv7PEdzDnMOf86WOXVzuud8UJ2r6q7KV81XrVftUf2sRlfzUktW26HWqPZYHa1uqr5IfaX6fvWr6iNzqXOd53Ln5s89OfeBBqxhqhGisUbjkEa7xpimlqaPpkhzj+YVzREtmpa7VpJWsdYFrWFtirartkC7WPui9gu6Cp1JT6GX0lvpozoaOr46Ep2DOh0647pGuuG6G3XrdR/rEfUYevF6xXoteqP62voL9bP1a/UfGBAMGAaJBrsN2gw+GBoZRhpuNmw0HDJSNWIbZRnVGj0yJhu7Ga8wrjS+a4I1YZgkm+wz6TSFTe1ME03LTW+bwWb2ZgKzfWZd8zDzHOcJ51XO6zMnmTPNM81rzfstaBYBFhstGi1ezdefHzN/x/y2+d8s7SxTLA9bPrRStvKz2mjVbPXG2tSaa11ufdeGbONts96myea1rZkt33a/7T07it1Cu812LXZf7R3sxfZ19sMO+g6xDnsd+hhURjBjK+O6I8bRw3G94znHT072ThlOJ53+cjZ3TnaucR5aYLSAv+DwggEXXReOy0EXqSvdNdb1gKvUTceN41bp9tRdz53nfsT9OdOEmcQ8xnzlYekh9jjj8YHlxFrLuuSJ8vTxzPfs8FL2Cvcq83rireud4F3rPepj57PG55Ivxtffd4dvH1uTzWVXs0f9HPzW+rX6k/xD/cv8nwaYBogDmhfCC/0W7lz4KNAgUBjYGASC2EE7gx4HGwWvCP51EXZR8KLyRc9CrEKyQ9pCKaHLQ2tC34d5hBWGPQw3DpeEt0QoRCyJqI74EOkZWRQpjZoftTbqVrR6tCC6KQYXExFzJGZssdfiXYsHl9gtyVvSu9Ro6aqlN5apL0tZdn65wnLO8lOxmNjI2JrYL5wgTiVnLI4dtzdulMvi7ua+5LnzinnDfBd+Ef95vEt8UfxQgkvCzoThRLfEksQRAUtQJnid5JtUkfQhOSj5aPJESmRKfSo+NTb1rFBZmCxsTdNKW5XWJTIT5YmkK5xW7FoxKvYXH0mH0pemN2VQkcaoXWIs+UHSn+maWZ75cWXEylOrlFYJV7WvNl29ZfXzLO+sn9eg13DXtGTrZG/I7l/LXHtwHbQubl3Ler31uesHc3xyqjYQNyRv+G2j5caije82RW5qztXMzckd+MHnh9o8+TxxXt9m580VP6J/FPzYscVmy54t3/J5+TcLLAtKCr5s5W69+ZPVT6U/TWyL39ZRaF+4fzt2u3B77w63HVVFSkVZRQM7F+5sKKYX5xe/27V8140S25KK3cTdkt3S0oDSpj36e7bv+VKWWNZT7lFev1dj75a9H/bx9nXvd99fV6FZUVDx+YDgwL2DPgcbKg0rSw5hD2UeenY44nDbz4yfq4+oHyk48vWo8Ki0KqSqtdqhurpGo6awFq6V1A4fW3Ks87jn8aY687qD9bT6ghPghOTEi19if+k96X+y5RTjVN1pg9N7z1DO5DdADasbRhsTG6VN0U1dZ/3OtjQ7N5/51eLXo+d0zpWfVzlfeIF4IffCxMWsi2OXRJdGLidcHmhZ3vLwStSVu62LWjuu+l+9fs372pU2ZtvF6y7Xz91wunH2JuNm4y37Ww3tdu1nfrP77UyHfUfDbYfbTZ2Onc1dC7oudLt1X77jeefaXfbdWz2BPV294b33+pb0Se/x7g3dT7n/+kHmg/GHOY8wj/IfKz4ueaLxpPJ3k9/rpfbS8/2e/e1PQ58+HOAOvPwj/Y8vg7nPyM9Knms/rx6yHjo37D3c+WLxi8GXopfjI3l/Kv2595Xxq9N/uf/VPho1Ovha/Hrizda3am+PvrN91zIWPPbkfer78Q/5H9U+Vn1ifGr7HPn5+fjKL7gvpV9NvjZ/8//2aCJ1YkLEEXOmWgEU4nB8PABvjgJAjgaA0on0D4un++kpg6a/AaYI/Cee7rmnzB6AOmSYbItYlwA4gbhhDqKN+GRLFOYOYBsbmc/0vlN9+qRhkS+WA56TdH/n0hzwD5vu4b+r+58jmFS1Bf8c/wXKLQcwDilIWwAAADhlWElmTU0AKgAAAAgAAYdpAAQAAAABAAAAGgAAAAAAAqACAAQAAAABAAADZqADAAQAAAABAAACwwAAAAC9BlNTAABAAElEQVR4Aezda5AV1b3w/z3DwDDoTACpgMpFEBQ0VZQBSSguBh4h8YhPUd6SI4iIsUxSViBgUcEkRiovOCFCYc55JVctk0HPkxQvwJOCE0vRxNRJgaKPD1B/sGRARJ2BYcCZ4eLM/7f3Gnqv6X3p7r27e6/u/u6ysHf36tVrfdaa3r++ra7q7u5O8UEAAQQQQAABBBBAoLBAdeFFLEEAAQQQQAABBBBAIC1AyEg/QAABBBBAAAEEEHAQIGR0AGIxAggggAACCCCAACEjfQABBBBAAAEEEEDAQYCQ0QGIxQgggAACCCCAAAKEjPQBBBBAAAEEEEAAAQcBQkYHIBYjgAACCCCAAAIIEDLSBxBAAAEEEEAAAQQcBGoclkdncVdX18mTJ+vr66uqqqJTakrqg4AMR3/u3LnrrruuujqoQyB6lw/tFM0s6F3RbLdolDqE3iUQ7L6i0Rv8LmUgvUsyjcfn+PHjfoOTX5QEpAME15PpXVHqCgGUld4VACpZ9ggE2rtkr8juK8ldzd/eFZ+zjHJ+UbqF6DQ0NBTqH5cuXdq9e/fcuXP79u1bKE2l5lO2kuVPnz49evRo1QFKzqT4ivSu4j7lLDW550u96F2OjWt4C5pcvBB6lzSf4+7LZCKTyya2JhcviN4Vn5BRXY+WeLF4yDhgwABJYGbISNkcf5zyJpA/Wpkf6A0J9K688r7MlOYztudLBeldjq1sfgsa28FC6F3SfI67L5Nb0OSyqf1DonpXUPd+Oe5lSIAAAggggAACCCAQFQFCxqi0FOVEAAEEEEAAAQQqJkDIWDF6NowAAggggAACCERFgJAxKi1FORFAAAEEEEAAgYoJxOfxl0KETU1Nzc3NaumgQYMKJWM+AiUI0LtKQGMVlwL0LpdQJCtBQO9dMnBjCTmwSgIFYh4yyl/FzeMndHa0q6YdNPiarVs2J7CZqXIQAvSuIFTJUwnQu+gJwQnYelddXV1jY+OJEydktLLgNkrOMRCIecgo5xfT8eK8lakhI1PNTZ1//fcYtBlVMESA3mVIQ8SyGPSuWDarIZXq1btSqY62T6RgLS0thIyGNJCxxYh5yNjjLvHisHHGtgEFi7YAvSva7Wd26eldZrdPtEtn9a4a3rIb7ZYMrfQ8/hIaNRtCAAEEEEAAAQSiKkDIGNWWo9wIIIAAAggggEBoAoSMoVGzIQQQQAABBBBAIKoChIxRbTnKjQACCCCAAAIIhCZAyBgaNRtCAAEEEEAAAQSiKkDIGNWWo9wIIIAAAggggEBoAoSMoVGzIQQQQAABBBBAIKoChIxRbTnKjQACCCCAAAIIhCZAyBgaNRtCAAEEEEAAAQSiKkDIGNWWo9wIIIAAAggggEBoAoSMoVGzIQQQQAABBBBAIKoChIxRbTnKjQACCCCAAAIIhCZAyBgaNRtCAAEEEEAAAQSiKkDIGNWWo9wIIIAAAggggEBoAoSMoVGzIQQQQAABBBBAIKoChIxRbTnKjQACCCCAAAIIhCZAyBgaNRtCAAEEEEAAAQSiKkDIGNWWo9wIIIAAAggggEBoAoSMoVGzIQQQQAABBBBAIKoChIxRbTnKjQACCCCAAAIIhCZgVsjY2tr605/+dOrUqcOGDautrb3++utnz579pz/9qbu7OzQRNoQAAggggAACCCBgEzArZGxubt6yZctVV101f/78FStW3HXXXR9++OH999//xBNP2MrNVwQQQAABBBBAAIHQBGpC25KbDY0ePVpONNbUZEt17ty5b3/72xs3bly6dOmtt97qJhPSIIAAAggggAACCPgrYNZZxj59+ujxolS1vr7+u9/9rkwcOXLE35qTGwIIIIAAAggggIBLAQ8h4+eff75z585nnnlGrhcPGTKkKvNZvHix45aampqeeuqpCRMmyBXnwYMHT5ky5bnnnmtvb3dcURJ0dna+/vrrsqlbbrnFTXrSIIAAAggggAACCPgukL0E7Jj10KFDHdPkJti1a9eCBQvOnj2rFkmk+M/MZ9OmTa+99tqYMWNyV5Fr0xs2bOjq6pIgVdIcP37817/+9bhx43JTMgcBBBBIjsCJEyfOnDmj6ivH7SNHjkxO3alp0AKnTp3av38/vSto50jn7yFktOo5YsQIOWW4e/dua06hiQMHDjz44IMSJl599dWrVq2aNWtWR0fH9u3b5d7Ew4cP33333RI9yiLb6hIyrl69Ws3s27fv7373O3kUxpaGrwiYKSB9vrq65+Q9P+pmtlF0SzVp8u1nTreo8vevG3D40EGixui2pmklX/jworOtPQck9C7TWseQ8ngIGeWS9O2Zj5xu/Pjjj+VRFcc6LFu2TOJFuT1R4ksZOkell3Fz5JThypUrDx06tH79esnWls8NN9wgo+p89dVXcn5R4stf/OIXf//731999VXbbY62tdx/5UfdvRUpvQrMnDlTjovUWux2veqRvrhAZ0d7at7K1JCRqeamzp1rZYgJQsbiYix1L3DxQie9yz1XMlN6CBmtM38upeQM4htvvCGJH3vsMSteVOvKWcOtW7cePHhQLkDL2Uc5lZibpzwKI7Hjz3/+c5mQ+FJOTP74xz/OTVbCHH7US0BjFZcCHXctSzVcn07Mj7pLMpJ5EpB4cRh36XgiI7FrAXqXa6pkJvTw+ItXoB07dqhVHn30Udu6cuVu0aJFMlPuy1FhpS2B/nXu3Lny1TGZvkrx6fSP+uL/SP83b6UctcuRevH0LEXAg8Dg4elfdPlPdr58EEAAAQQQiItAgCHjW2+9JUrylPSkSZNyue644w418+23385dqs85efKkfPXrqnQ6Z37UdV+mEUAAAQQQQAABJ4EAQ0a57ixbHzt2bN5ob/z48apsKpmafu+996xnq9Wc06dPP/300zItI/uoOfyLAAIIIIAAAgggELKAh3sZPZVMxlNUF3yHDx+ed8VBgwbJCcgvv/xSnnGxEmzbtk0G35EHq0eNGiVLjx07JmP0nD9//r777nvooYesZNbEhcxHfW1ra5OJS5mPlUBG6qmrq+uoqUr16U7VVMl0epH6mpmQOZJGVrJWqdSEKoMJJckVMLlsUtqA0OhduT0hiDn0Lvf7LtvejH2Xmw5pcgcLaN8lLMV3X71+GSW1/CamUvQuN93JliZpvatKnk22Ebj5aj0x/cgjj0icl7vKF1988fWvf13mf//735ennnMTyBx58lpGXvzGN77xwQcfqARykXrz5s3/+Mc/5GK0PGot435/85vflLsef/CDH8ho3rmZPPvss7aHcv74xz8OGDAgNyVzYiwgXUWOKOT8dENDg4/VpHf5iBndrOhd0W0780seUO+SirP7Mr/1gy5hEL0rqJBRzh2q0R8efvjhl156KS+NJJBkN954Y8kvA7QdSMmAkXJqU48bZDyd9PPRC55LDb0x9dnRwX/+1ZYtW+b/5WTqmjHpIn12tO4PT+3du3fixIl5SxjmTDlY2bNnz5w5c/I+Px5mSXK3ZXLZpLQtLS3XXnut7yEjvSu3JwQxh94lZxld7ruWLFly+t7fqL0Z+y6XvdHkDhbQvktkiu++ev0ySuqWj3Z87zp6l8sepSdLWu8K6sJ0//79FevFixd1X31a+rR87blYrC9wPV2b+ejJJd7SQy55NDs9SN7l7tRXVfJvz4B56quslpkjafRV9NzCn84UP8+QQ+GXJHeLxpYtoOajd+X2geDm0LtsAnn3Xba9Gfsu9x3Sxut+xUBTBrTvkjIX33316l2SWn4TUyl6V8ltnZzeFdTjL/X19Upf7kQs1AxyI6Msyn37S6H0zEcAAQQQQAABBBCoiEBQIaOcZZS3pUmV5KWoeSsmIzKqkFGuyORNwEwEEEAAAQQQQAABQwSCChmlevIeavlX7lO8fPlybm3lbYFqpkqWm4A5CCCAAAIIIIAAAoYIBBgyTp8+XSoppxL37duXW9s333xTzZw2bVruUuYggAACCCCAAAIImCMQYMg4f/58VU95nbStwjIolHqMeuDAgTIKo20pXxFAAAEEEEAAAQSMEggwZJwyZcqMGTOktjLU4jvvvKNXe926deqlL0uXLg3ukTF9i0wjgAACCCCAAAIIlCzgYZAdGWfbGkBRvdlFtipz9KG8Fy9erBfl+eefl+vO8uj+3Llz5b1/ckJRpmVk7xdeeEGS3XTTTStWrNDTV2T6008/3b9/v9q0PLKjhpOsSEnYaPwE6F3xa1NqhAACCCRTwEPIKK/ye/HFF21Mf8t8rJm2kPG222575ZVXFi5cKGPVqldFWyklXpSXAVpj8Vjzw5+49777L17oVNvtXzfg8KGDRI3ht0Jct0jvimvLmlAv/YBEysMRrwmNEpsy0Lti05Q+VsRDyFjaVu+55573339fTjdKgCgD7vTr12/s2LEPPPDAk08+acib/dLx4ryVqSEjU81NnTvXyglUQsbS2pq1cgXoXbkmzPFLQD8gkTw54vULlnxEgN5FN8gV8BAyygVo/Rp0bl6F5owaNWp95lMoQeXnS7w4bFzli0EJYilA74plsxpQqewBiRSGI14DWiRORaB3xak1/aqLh5DRr02SDwIIIICAPwIckPjjSC75BOhd+VSSPC/AJ6aTzErdEUAAAQQQQACBOAkQMsapNakLAggggAACCCAQiAAhYyCsZIoAAggggAACCMRJgJAxTq1JXRBAAAEEEEAAgUAECBkDYSVTBBBAAAEEEEAgTgI8MR2n1qQupgswOq7pLUT5EEAAAQQKCBAyFoBhNgIBCDA6bgCoZIkAAgggEIYAIaNdmfNAdhG++yfA6Lj+WZJTHgF998X7A/MAMasMAXpXGXgxWZWQ0d6QnAeyi/DdXwFGx/XXk9w0AX33xfsDNRgmfRCgd/mAGPEsCBntDch5ILsI3xFAICIC2d0X7w+MSJNFqJj0rgg1VkBFJWTMB8t5oHwqzEMAgQgIsPuKQCNFtoj0rsg2nS8FZ5AdXxjJBAEEEEAAAQQQiLMAIWOcW5e6IYAAAggggAACvggQMvrCSCYIIIAAAggggECcBbiXMc6tS90QQCDJAvqoKOLAsDtJ7gzUHYHyBQgZyzckBwRKF9B/1PlFL92RNfMJ6KOiyHKG3cmHxDwEEHArQMjoLMWPurMRKUoV0H/U+UUvVZH18gtkR0WR5Qy7kx+JuQgg4FaAkNFZih91ZyNSlCqQ/VHnF71UQ9YrJsCoKMV0WFa6gH4yRXLhIknplNFZk5DRua34UXc2IkU5Avyol6PHugggUAkB/WSKbJ+LJJVohLC3ScjoTpwfdXdOpEIAAQQQSIJA9mSK1JaLJElo8lSKkDEZ7UwtEUAAAQQQ8FeAkyn+ehqfGyGj8U1EARMm0NTU1NzcrCrN7UEJa3yqiwACCJgrQMhobttQsgQKyB3l06bP6OxoV3Xn9qAE9gGqjAACCJgpQMhoZrtQqoQKtLa2puPFeStTcsWH24MS2gsCrLb+lCvnsAOEJmsE4ihAyBjHVqVOURfgDqGot6Cp5defcuUctqmtRLkQMFSAkNHQhqFYCCCAgO8C2adcOYftOy4ZIhB3AUJGzy2sX9mRlbm441mQFRBAoIICnMOuIH6sN63/OPLLGMumJmT03Kz6lR1ZmYs7ngVZAQEEEEAgdgL6jyO/jLFr3nSFCBk9N2v2yo6sysUdz36sgAACCCAQQ4HsjyO/jDFs3nSVCBlLaliu7JTExkoIIIAAAnEW4Mcxzq1LyOhH63IDhx+K5IEAAgggEB8B/ZdRasXdjTFoWs4y+tCI3MDhAyJZIIAAAgjESED/ZZRqcXdjDNqWkNGHRuQGDh8QyaKAAEfqBWCY7YMAvcsHRLIoIJD9ZZQE3N1YQClaswkZfWovbuDwCZJsbAIcqdtA+OqjAL3LR0yyyiPAL2MelAjPImT0v/E4cPffNME5cqSe4MYPvOr0rsCJ2YAmoP84cmujBhOZSUJG/5uKA3f/TROeI0fqCe8AgVaf3hUoL5lrAvqPI7c2ajCRmSRk9L+pOHD335QcEUAAAQQiLpD9ceTWxmg2JSFjMO3GgXswruSKAAIIIBBhAX4cI9x4jMsY5caj7MkU4H6gZLY7tUYAAQQqK8BZxsr6s3UEPAtwP5BnMlZAAAEEEChbgJCxbEIyQCBcAe4HCtebrSGAAAIIpAUIGekHCERQgPuBIthokSgytz1EopkoJAIVESBkrAg7G0UAAQRMFOC2BxNbhTIhYIYAIaMZ7UApEEAAAQMEuO3BgEZIUBGampqam5tVhRnc2/yGJ2QMo4241hOGMttAAAFfBLjtwRdGMnESkF/GadNndHa0q4QM7u0EVvnlhIxhtAHXesJQZhsIIIAAAtERaG1tTceL81am5CiFwb2j0HCEjGG0Etd6wlBO6jb0c9hiwMWdpHYE6o1ANAU4qx2ddiNkDKut+KsISzpp29HPYUvdubiTtA5AfRFAAIFwBAgZw3G2b4V7fu0ifC9VIHsOW3Lg4k6pjKyHAAIIIFBcgJCxuE8gS/Pe83vttdcGsjEyTYIA57CT0MqVqCO3PVRCnW0iYKgAIWMFGib3nt8PPvjg888/l6IcOHCgurqa29Eq0CpsEgEEcgS47SGHhBkIJFeAkLFyba+dGZL9cp/qqsbGxpkzZ3Z0dHA7WuVahS0jgEBWgNseshZMIZB4AUJGI7pAer987yopSseC51KnjnXuXCujm44cOdKIwlEIBBBIsoB2cJtkBuoegkDujRDcshUCu/tNEDK6two45eDh6Q0MvTF1uTvgLZE9AggggAACxgnk3gjx33t2Sym5ZcuQpiJkNKQhKAYCvgnoR+rcF+sbKxkhgEDAArk3Qtw9754Xt23llq2A4d1mT8joVop0CERFQD9SV/fFcnEnKm1nfjltByRSYB7dM7/VolTC3jdCpINIbtkypv0IGY1pCgqCgE8C2SP1K8M0EjL6REs2Kf2ApLa2f6qqqroqxaN79IxgBbhlK1hft7kTMrqVIh0CURLofaQepZJTVrMF9AOSCzvXpgvLo3tmNxmlQ8AvgWq/MvIrn5dffvmJJ56YPHlybW1tVVXVtm3b/MqZfBBAAAEEfBBQByTyr/pYj+5Zc3zYBlkggIBxAsadZfzlL3957NgxuWdfLqXJhHFgFAgBBBBAAAEEEEiegHFnGTdt2vTxxx9/8cUXP/rRj5LXHNQYAf8F5HkFGaJC8pV/9+/fL+83938b5IgAAgggEHcB484y3nnnnXE3p34IhCrAu4VC5U78xmyPVPNKgsT3CD8B9N4l+TKImJ+4LvLyEDLKSAr/k/n8M/NpaWmR/B955BHH2w3lrMbvf//7Xbt2yYTcoTh27NgHH3zwJz/5yYABA1yUkCQIIFCWQPp5hd4PKMg7zeX1QipT9rll4bJyjoD+SDXvPs3hYUZZAnrvkozoYGVpel/ZQ8g4dOhQ7/mnJFJcsGDB2bNn1brt7e0q4pQL0K+99tqYMWNKyJNVEEDAm4D1gELm3UL6bpd9rjdJUjsJ6I9Uq3efyhocojixsdyVQLZ3pXtVEy/XdaXmXyIPIaO10REjRkyYMGH37vRrfIp/5N4pOaEoYeLVV1+9atWqWbNmdXR0bN++fePGjYcPH7777rslfJRFxTNhKQII+CuQ3e2yz/VXltyUgDbGk1xJnDZ9RmdHu1rCIQp9pFwBrXeVmxXrexTwEDI+88wzt2c+crpRnlAZPXq047aWLVsm8WJNTY3El1OnTlXpZ8+ePW7cuJUrVx46dGj9+vWSrWM+JEAAAZ8F2O36DEp2+QVaW1vT8eK8lSnpchyi5EdiLgLREPAQMq5evdpTneQM4htvvCGrPPbYY1a8qHJYsWLF1q1bDx48uGHDBjn72LdvX085JyGxfpMvd5slocUrWEe9s0kx6G8VbIvYbppDlNg2LRVLkICHkNGryo4dO9Qqjz76qG3d6urqRYsWSbB45swZCSvnzJljS8BX7jajD4QmoHc22SiXDkOTZ0MIIIBAhAQCDBnfeustgbjqqqsmTZqUK3LHHXeomW+//TYhY64Pd5vlmjAnIIFsZ5MNcOkwIGWyRQABBCIuEGDIKNedBUeG1JF7GXOVxo8fr2aqZLkJmJO+9WfYOBwQCEOAzhaGMttAAAEEIiyQJ5jzpTadnZ1qVIXhw4fnzXDQoEFyAvLLL788fvy4nkAG35HzjjJHho6Tf+WruiFyfuajp2QaAQQQQAABBBBAIByBoELGc+fOqQoUGUNHhYznz5/Xqyrx4osvvmjN+VvmI19vuOEGCRqt+WriQuajptva2mTiUuZjJevq6qqrq+uoqUr16U7VVMl0epH6mplQc2wJer4GmSC3VOmNyqc6W069VFIRqVk6QSU+atMVLEDxSgdUsEr1rvx9QzqwfK70Yb1vyGxXPVbSFehduTmE2d/oXe73XUH1jYB7l63YYfYu6dsmd7CA9l1S6+K7r16/jJI68+tja6bc3UJ2jm1HlMlBVi8hgeNGVbZ59l1XNhpyd5LN6p+k9a6q7u7MT5Fu4GLaGmSn0Ntf5Nyhek/Uww8//NJLL+XNUhJIshtvvPHIkSN5EzjOfPbZZ23Pcf/xj3/kpTKObjFLIAM5PfTQQzJcfENDg49Vo3f5iBndrOhd0W0780seUO+SirP7Mr/1gy5hEL0rqJDxiy+++PrXvy4i3//+92Xs7rw0Mr6jvITwG9/4hroGnTdN8Zm2AykZY1yuhutxg4wlPnPmzI4Fz6WG3pj67OjgP/9qy5Yt8/9yMnVN5q0znx2t+8NTsgkrQa+vsiCYBDKS+eOPP27f6CPrdnzvuvn7alOfftSrGJkyvPrqq8OGDbM0rrnmmkJX/K00Pk7IgdSePXvkKSUzh0OSd1dee+21voeMFeld+fuG6sDldMiivUsy7umNVzaxd+/eiRMn+tiFimRF75KzjC73XUuWLDl972/U3qzXXuJKw8n/7TuW8juPYw5Fe1dulw55b2ZyBwto3yXdoPjuq9cvo6Ru+Uh+fcLvXbl9I9uBZSrz2ydnGdO/2rm/jFcShLmzkm3aPknrXUFdmK6vr1eytuvOOrfcyChfi1y51hPnnZY3VstHXyQxjR7WyGg+8r6ZlLwk7asq+Tc9LR/1NTPRa06ICfKXSorUlVPOTKnuu/+B9GOtVz4VGQbFZnulLJX/v97iPpamUr0rf9+QDiwfWxe1fS2eQJYW6F0q5/TfyJUc5A8nINX0JvJ96F02gbz7rqD6htb06cYpYYcpaxXuXbZiV2RvZuPN1wcrMC+4v7Liu69evUu1uBxsVOK30tVG8/auTLFl9fB3VrkdJTm9K6iQsX///jIgsJzzO3HiRK6vzJERGVXIKIfXeRMwUxdwHAalqanJeourrMhozLoe02UK0LvKBGR1XcBxb6YnZhoBBMwRCCpklBrKe6hlaEa5T/Hy5cu54+zI2wKVgiQzh8PokhQeBkV+0W8eP8F6i6vUoiKnIY3Wo3ClCtC7SpVjvcIChfdmhddhCQIIVFggwJBx+vTpEjLKqcR9+/Z961vfslX0zTffVHOmTZtmW8RXrwJyfjH7FldZmdGYvQqSvrAAvauwDUsqI8Bp78q4G7lV/X2ncnlNymi74KbP4fpbmW0YYMgoY+KsWbNGyievk7aFjPJUvHqMeuDAgbNmzSqzDqzeI8CBO10hOAF6V3C25OxFgNPeXrTin1Z/32ltbf9UVdWFzsxDC5mq2+Zw/a3MDhFgyDhlypQZM2bIicbNmzfLWDxTp061yrpu3Tr10pelS5cGd/+vtTkmEEAAAQTiIcBp73i0o1+1yN4a29x0YefadLbzVqbfnSYf2xyuv6VRyvp4CBllkG1rAEXrxK/M2bZtm1WExYsXW9My8fzzz8t1Z3mmae7cuU8//bScUJRpGXPnhRdekKU33XTTihUr9PRMuxfQz8bLtPsVSYlA+QJ69+NaT/me5OBZgNPensniu4KtM9i+Sr1z58QXI9CaeQgZ5d19+ntZVLGst7Oor7aQ8bbbbnvllVcWLlwoA49JyKjXROLFXbt2WWPx6IuYdiOgn43vJ2fj+SAQooDe/bjWEyI8m0IAAQQqJuAhZCytjPfcc8/7778vpxslQJQBd/r16zd27NgHHnjgySef5DUtpZGqtfSz8RfV2fhysmNdBLwI6N2vc+daueyg3vbkJQ/SIoAAAghEScBDyCgXoPVr0O5rOWrUqPWZj/tVSOlKgJPtrphIFIwA3S8YV3JFAAEEzBTwEDKaWQFKVbKAPlAFt6OVzMiKCCCAAAJREdDvw5Yy89vnqeEIGT1xxSexbaAKbkeLT9NSEwQQQACBAgL6fdiShN++Ak75ZxMy5neJ/dxeA1Uw9EDs25sKIoAAAgikUtn7sEWD3z6PXYKQ0SNYzJJzO1rMGpTqIIAAAggUF+CHr7hP4aWEjIVtWJIjwO2POSTMQACBcgX028tKu7es/BzKrQPrI5AAAULGBDSyT1WUMZJuufUb6ZdZZz7cAuKTK9kgkHQB/fay0nYs5eeQ9Dag/gi4ECBkdIFEkoxAS0tLOl5U72LiFhB6BQII+CSQvb2s1B1L+Tn4VBWyQSDOAoSMcW7dQOrGXSCBsJIpAskWKH/HUn4OyW4Bao+Ao0C1YwoSIIAAAggggAACCCRcgLOMse0AtvvBpZ4ysI5VW1lqTTOBgE1A7zx0FRsOX4MW0LufbEseiJF/rd2Xmw6p59DV1RV0gck/aQLWk6BJ612EjLHt6vr94LW1/VNVVRc6O6za9pM5fBAoIKB3HrpKASRmByWgdz/Zhm335aZD6jnU1dU1NjbK03ujR48OqsTkmyQB/UUYSetdhIyx7en6/eAXdq5N11M9uSITzU0X1ZzY1p6KlSWgdx66SlmUrOxdINv9ZN3mpl67L3f7Lj2HjrZPJBt5eo+Q0XtTsEYeAf1FGEnrXYSMeTpEfGbZ7ge3fY1PPalJAAL0lgBQydKtQG73y51TPC8rfU1V8YQsRaAUAdXBEta7ePyllK7COggggAACCCCAQKIECBkT1dxUFgEEEEAAAQQQKEWAkLEUNdZBAAEEEEAAAQQSJUDImKjmprIIIIAAAggggEApAjz+UopaQtZJ7NBTCWlff6tp9RbJVgbSGzlypC1/WwJZqkbaUwObMQaKjYuvIQvY+mduBw65PGwuNAF9FE+X+67QymbahggZTWsRU8ojO9Cbx09Iv1Q6lVJDT506dcqUwlEOwwRknztt+gzVW6Ro/esGHD50UP/R1buTJNBH2lO9a9Lk2997d7++imFVpDhxFrD1z9wOHOfKJ75u+iieuU2f2zf+z3++mlgzQsbENr1DxXOHnjp79qzDOixOqkBra2s6XlQDfzY3de5cK/1Hj//07mQbaa8jM0qFrG5bJamW1LsCArb+mduBK1AmNhmWQHYUTxf7LukbsrsLq2jGbYeQ0bgmMatAiRx6yqwmiFBprJHwCpXZlkB97dOdSnUWWoP5CIQnYOuf4W2YLVVawLHpHRNUugbhbJ/HX8JxZisIIIAAAggggECEBQgZI9x4FB0BBBBAAAEEEAhHgJAxHGe2ggACCCCAAAIIRFiAkDHCjUfREUAAAQQQQACBcAQIGcNxZisIIIAAAggggECEBQgZI9x4FB0BBBBAAAEEEAhHgJAxHGe2ggACCCCAAAIIRFiAkDHCjUfREUAAAQQQQACBcAQIGcNxZisIIIAAAggggECEBXj7S4Qbz/yiy9s55U1cVjnzvvHdWspEnATkrdP79++3aiRfrelCE/oqdJVCSsz3RcC2a3LTP33ZLpmYL6DviKS09A29yQgZdQ2m/RSwvc1dss5947uf2yMvkwTuve/+9Jtbr3z61fa/Mlnw//oqdJWCTCwoWyB31+Smf5a9WTKIhoC+I5IS0zf0ZiNk1DWY9lNAzi92drSn5q1Myds55ZPvje9+bo+8TBJIx4ta01/cudaxdNlV6CqOWCQoQyB31+Smf5axQVaNkkB2RySlbm6ib+iNR8ioazAdgABvcw8ANRpZltD0JawSDQtKaZ4Anc28NjGlRPSNAi3B4y8FYJiNAAIIIIAAAgggcEWAkPGKBP9HAAEEEEAAAQQQKCBAyFgAhtkIIIAAAggggAACVwQIGa9I8H8EEEAAAQQQQACBAgLxefylu7tb6tjW1qbX9Pz58+mvFztTF9rlX0nT3p6eSH9V89P/yyZQ34JOkC5Dvo2m51/oSm9dfa4Uu9dXtWIACcRK17PRSdnSxVNbz2DKpG0VVSjr3145qBWdVrHW9TRx7tw5Sa86gKcV3ScOrXflIqcL6UePTeccWO8qq9h95K8y/beZrWnmT6B473LfdmWmNKp3pZXC3S1kG0WmMu2SnaN9LdK7yuobRTfqfjcuZdC7U95dk61eevr0omA+IfQuKXju7itXQIjC711u+oaUKp0sd98lFdN6oPqJ72kl9TcSWAJbseVrOL2lp3au/xdI75L2iMfn+PHjriVJGEOBo0ePBteT6V0x7DFeqkTv8qJFWm8CgfYu2Suy+/LWHvFK7W/vqpL+FA+frq6ukydP1tfXV1VVFaqRnEUbMWKE/P00NDQUSlOp+ZStZPmzZ8+OHDnyzJkzAwcOLDmT4ivSu4r7lLPU5J4v9aJ3OTau4S1ocvFC6F3SfI67L5OJTC6b2JpcvCB6V3wuTFdXVw8fPtxx7yYJJF40MGRUJadsblowbxrpAHnn+zKT3uULY5FMTO75Umx6V5G2U4sMb0GTixdo71K9182Po8lEJpdNhE0unr+9K8BfWcddDAkQQAABBBBAAAEEIiFAyBiJZqKQCCCAAAIIIIBAJQX6PPvss5Xcfujb7tOnz3e+852aGhOvyFO2kruDIXSGFCMvI2XLy+JmpiF0hhQjr5jJZZMCm1w8Q8pmSDHoXXkFSp7pe7PG5/GXkk1ZEQEEEEAAAQQQQKC4ABemi/uwFAEEEEAAAQQQQCBFyEgnQAABBBBAAAEEEHAQIGR0AGIxAggggAACCCCAACEjfQABBBBAAAEEEEDAQYCQ0QGIxQgggAACCCCAAAKEjPQBBBBAAAEEEEAAAQcBQkYHIBYjgAACCCCAAAIIEDLSBxBAAAEEEEAAAQQcBAgZHYBYjAACCCCAAAIIIEDISB9AAAEEEEAAAQQQcBAgZHQAYjECCCCAAAIIIIAAISN9AAEEEEAAAQQQQMBBgJDRAYjFCCCAAAIIIIAAAoSM9AEEEEAAAQQQQAABBwFCRgcgFiOAAAIIIIAAAggQMtIHEEAAAQQQQAABBBwECBkdgFiMAAIIIIAAAgggQMhIH0AAAQQQQAABBBBwECBkdABiMQIIIIAAAggggAAhI30AAQQQQAABBBBAwEGAkNEBiMUIIIAAAggggAAChIz0AQQQQAABBBBAAAEHAUJGByAWI4AAAggggAACCBAy0gcQQAABBBBAAAEEHAQIGR2AWIwAAggggAACCCBAyEgfQAABBBBAAAEEEHAQIGR0AGIxAggggAACCCCAACEjfQABBBBAAAEEEEDAQaDGYXl0Fnd1dZ08ebK+vr6qqio6paakPgh0d3efO3fuuuuuq64O6hCI3uVDO0UzC3pXNNstGqUOoXcJBLuvaPQGv0sZRO+KT8go8eKIESP8Nie/yAgcP358+PDhPhb3QuajMvzkk09uueUWHzMnq2gJ+N679Oqz79I1EjgdaO8STzpYAjuVVWV/e1d8QkY5vyhGotPQ0GBh2SYuXbq0e/fuuXPn9u3b17ao4l8pW8lNcPr06dGjR6sOUHImuSuuWbNm9erV+vxNmzYNGDBAn8N07AXa29t/+MMf+t67dDf2XbqG79Mm71oD2nfZDB07mMlEJpdNnE0uXhC9Kz4ho7oeLfFi8ZBRfvIlgZkhI2Wz7elcfpU/Wknp+w0Jq1atWr58uSpDW1ubnMOeP39+8d61Z8+eOXPmmNm7KJvL7mRL1tLSEkTv0rfCvkvX8H1a9g8m71qD7l1W/umfxgLnUwwnMrb5xNZwOqv1ZcKXT3xCRl84yAQBS6A287G+yoTEgo7hoJs0ep5hTlO2ErQdW7yEPFkFAQQQiKJAUI8LRNGCMiOAAAIIIIAAAgjkFSBkzMvCTAQQQAABBBBAAIGsACFj1oIpBBBAAAEEEEAAgbwC8b+Xsampqbm5WVV+0KBBeRWYiUBpAvSu0txYy40AvcuNEmlKE9B7lwzcWFomrJU0gZiHjPJXcfP4CZ0d7apdBw2+ZuuWzUlrY+obkAC9KyBYshUBehfdIDgBW++qq6trbGw8ceKEjFYW3EbJOQYCMQ8Z5fxiOl6ctzI1ZGSquanzr/8egzajCoYI0LsMaYhYFoPeFctmNaRSvXpXKtXR9okUTMaTImQ0pIGMLUbMQ8Yed4kXh40ztg0oWLQF6F3Rbj+zS0/vMrt9ol06q3fV8JbdaLdkaKXn8ZfQqNkQAggggAACCCAQVQFCxqi2HOVGAAEEEEAAAQRCEyBkDI2aDSGAAAIIIIAAAlEVIGSMastRbgQQQAABBBBAIDQBQsbQqNkQAggggAACCCAQVQFCxqi2HOVGAAEEEEAAAQRCEyBkDI2aDSGAAAIIIIAAAlEVIGSMastRbgQQQAABBBBAIDQBQsbQqNkQAggggAACCCAQVQFCxqi2HOVGAAEEEEAAAQRCEyBkDI2aDSGAAAIIIIAAAlEVIGSMastRbgQQQAABBBBAIDQBQsbQqNkQAggggAACCCAQVQFCxqi2HOVGAAEEEEAAAQRCEyBkDI2aDSGAAAIIIIAAAlEVIGSMastRbgQQQAABBBBAIDQBQsbQqNkQAggggAACCCAQVQFCxqi2HOVGAAEEEEAAAQRCEyBkDI2aDSGAAAIIIIAAAlEVIGSMastRbgQQQAABBBBAIDQBs0LG1tbWn/70p1OnTh02bFhtbe31118/e/bsP/3pT93d3aGJsCEEEEAAAQQQQAABm4BZIWNzc/OWLVuuuuqq+fPnr1ix4q677vrwww/vv//+J554wlZuviKAAAIIIIAAAgiEJlAT2pbcbGj06NFyorGmJluqc+fOffvb3964cePSpUtvvfVWN5mQBgEEEEAAAQQQQMBfAbPOMvbp00ePF6Wq9fX13/3ud2XiyJEj/tac3BBAAAEEEEAAAQRcCngIGT///POdO3c+88wzcr14yJAhVZnP4sWLHbfU1NT01FNPTZgwQa44Dx48eMqUKc8991x7e7vjipKgs7Pz9ddfl03dcsstbtKTBgEEEEAAAQQQQMB3gewlYMeshw4d6pgmN8GuXbsWLFhw9uxZtUgixX9mPps2bXrttdfGjBmTu4pcm96wYUNXV5cEqZLm+PHjv/71r8eNG5ebsrQ5Bw4cqK7uiZUl9h05cmRp+bAWAgggEKbAiRMnzpw5o7bIvitMebaFAAIi4CFktLxGjBghpwx3795tzSk0IcHZgw8+KGHi1VdfvWrVqlmzZnV0dGzfvl3uTTx8+PDdd98t0aMssq0uIePq1avVzL59+/7ud7+TR2Fsacr5OnPmTCmGyqF/3YDDhw4SNZbjyboIIBCOwKTJt5853aK2xb4rHHO2ggACloCHkFEuSd+e+cjpxo8//lgeVbFyKTSxbNkyiRfl9kSJL2XoHJVMxs2RU4YrV648dOjQ+vXrJVvb6jfccIOMqvPVV1/J+UWJL3/xi1/8/e9/f/XVV223OdrWcv+1465lqYbr0+mbmzp3rpXHtAkZ3euREgEEKiXQ2dGemrcyNWQk+65KNUGMt3vq1Kn9+/erCnIOO8YNXU7VPISM1pk/l9uTM4hvvPGGJH7ssceseFGtK2cNt27devDgQbkALWcf5VRibp7yKIzEjj//+c9lQuJLOTH54x//ODdZKXMGD08NGVvKiqyDAAIIVFZA4sVhvt2lU9mqsHWjBBY+vOhsa89tD5zDNqppzCmMh8dfvBZ6x44dapVHH33Utq7cSrho0SKZKfflqLDSlkD/OnfuXPnqmExfhWkEKiUgN2PIkbr6yINflSoG20UAAQQ8CVy80Jk+h734P+RfOZ8t1988rU7iJAh4OMvoleOtt96SVeQp6UmTJuWue8cdd6iZb7/99pw5c3ITWHNOnjwp035dlbayZQKBIAS4UzYIVfJEAIEwBDiHHYZyhLcRYMgo150FZuzYsXmjvfHjxys2lUxNv/fee3KL5Ne+9jVL9PTp008//bR8lZF9rJlMIGCsAHfKGts0FAwBBBBAoByBoEJGGU9RndYePnx43vINGjRITkB++eWX8oyLlWDbtm0y+I48WD1q1ChZeuzYMRmj5/z58/fdd99DDz1kJWMCAXMFuFPW3LahZAgggAACpQsEFTLKi/5UoXLH0LEKq0JGiQitOfI6aRnB8R//+MfevXvlUWsZ93v69Oly1+MPfvADGc3bSmZNXMh81Ne2tjaZuJT5WAlkcMe6urqOmqpUn+5UTZVMpxepr5kJmSNpZCVrlUpNqDKYUJJcAZPLJqU1Ey2XkTkIWAKl7btsezP2XZZnkQmTd1/B7buKd7Bev4xiJ7+JqRS9q0gvKrQoab0rqJBRzjIq4n79+hWyrq2tlUXWEIkyLQGifAqlz52/Zs0a23PcMprPgAED9JSNjY2Zr1Ke61Pztsj0ju9dJ6+VycyUOY2fZD76KhWc3rNnTwW3XnzTxpZNji6Kl5ylCJgmUNq+a8uW9B4ss/ti3+WtSc3cfQW373LsYNovo0jKb2KK3uWtS2mpk9O7ggoZ+/fvrzwvXryowfaalMMg+d5z5q/XErdfZICe5cuXq9RyllHGGJfHqxsaGqz15fHV9OMIC55LDb0x9dnRwX/+lfxVzP/LydQ1mbfOfHa07g9PyRnNiRMnWqtUakIOVqTbyZNAeYccqlSp1HZNLpuUsKWlZ3DjyiqxdQTcC5S271qyZMnpe3+j9mbsu1xqm7z7Cm7fVbyD9fplFMeWj+RMCr3LZY/SkyWtdwUVMtbX1ytW/bqzDi3TciOj/FvkyrUtfe5XOU+pTlVaiyTe0kMuGc0nfRbzcnfqqyr5t+eMpvoq62TmSBp9FSurikxkip9nlMqKFMa2UWPLZk7z2cT4ikAhgdL2Xba9GfuuQry5883cfQW37yrewXr9MgqW/CaqK37abyW9K7cXFZqTnN4V1LiMcpZRho8XX3kpal5lGZFRhYxyajBvAmYigAACCCCAAAIIGCIQVMgo1ZP3UMu/R44cuXz5cm5t5W2BaqZKlpuAOQgggAACCCCAAAKGCAQYMqoHWeRU4r59+3Jr++abb6qZ06ZNy13KHAQQQAABBBBAAAFzBAIMGefPn6/qKa+TtlVYnvB/6aWXZObAgQNlFEbbUr4igAACCCCAAAIIGCUQYMg4ZcqUGTNmSG03b978zjvv6NVet26deunL0qVLg7v/V99ikelPP/30yjuB9/NS4CJQLEIAAQQQQACBxAp4eGJaXgYtNyYqKeuF5TJHXtli8S1evNialonnn39erjvLU34y9o28909OKMr09u3bX3jhBVl60003rVixQk9fkel777s//Tr2zKd/3YDDhw6OHDmyIiVhowgggIB7AXW4a6WXJw7Zd1kaTJQpQO8qEzCWq3sIGeVVfi+++KJN4W+ZjzXTFjLedtttr7zyysKFC2XQRPWqaCulxIvyMkBrLB5rfvgT6Xhx3sqUvI69ualz51qJhtntht8KbBEBBLwK6Ie7si5HvF4BSV9EgN5VBCexizyEjKUZ3XPPPe+//76cbpQAUQbckZfBjB079oEHHnjyySdtr2kpLX9/1pJ4cdg4f7IiFwQQQCAUgezhrmyOI95QzJOzEXpXctrafU09hIxyAVq/Bu1+G6NGjVqf+bhfhZQIIIAAAs4CHO46G5GiVAF6V6lycV3PQ8gYVwLqhUBwAvr9QNxqFpwzOSOAAAIIBC1AyBi0MPknWkC/H4hbzRLdFag8AgggEHEBQsaINyDFN1sgez8Qt5qZ3VKUDgEEEECguAAhY3EfliJQtgD3A5VNSAYIIIAAAhUXCHAo74rXjQIggAACCCCAAAII+CJAyOgLI5kggAACCCCAAAJxFuDCtL119UdcZRlPudqB+I4AAqYK6Lsv9l2mthLlQiCqAoSM9pbTH3GVZTzlagfiOwIImCqg777Yd5naSpQLgagKEDLaWy77iKss4SlXOw/fEUDAXIHs7ot9l7mtRMkQiKoAIWO+luMR13wqzEMAgQgIsPuKQCNFsojc9hDJZvO10ISMvnKSGQIIIIAAAnEU4LaHOLaqtzoRMnrzIjUCCCCAAAIJFOC2hwQ2uq3KhIw2EL4igAACCCCAQD4BbnvIp5KceYSMyWlralp5Af1mICkNw6BUvkkoAQIIIICAOwFCRndOpELADwH9ZiDJj2FQ/EAlDwQQQACBMAQIGcNQZhsIKIHszUDynWFQ6BYIIBBZAa6ZRLbpSi84IWPpdqyJQCkC3AxUihrrlCLAj3opaqzjToBrJu6cYpWKkDFWzUllEEAAAUuAH3WLggnfBbhm4jup+RkSMprfRpQQAQQQKEWAH/VS1FjHvQDXTNxbxSIlIWMsmpFKIIAAAnkF+FHPy8JMBBDwLkDI6Gym3w/EqCjOXqRAAAEEEEAAgdgJEDI6N6l+PxCjojh7kQIBBBBAAAEEYidAyOjcpNn7gRgVxVmLFAgggAACCCAQQwFCRneNyv1A7pxIhQACCCCAAAKxFKiOZa2oFAIIIIAAAggggICPApxl9BGTrBDwLMDDVZ7JWAEBBBBAoBIChIye1fXfeFmZZ6g9C7KCJsDDVRoGk4EL6Lsv9l2BcydsA/Su2Dc4IaPnJtZ/42VlnqH2LMgKmkDuw1WysLm5WSXhR12jYtIHAX33xb7LB1Cy0AToXRpGPCcJGT23a/Y3XlblGWrPfqyQI6A9XCWH6dOmz+jsaFeJ+FHPwWJGWQLZ3Rf7rrIgWTmPAL0rD0q8ZhEyltSe2m98SeuzEgL5BVpbW9Px4ryVKelj/KjnR2JueQLsvsrzY+1iAvSuYjqRX0bIGPkmpAIxFGC3G8NGpUoIIIBAtAUYZCfa7UfpEUAAAQQQQACBEAQIGUNAZhMIIIAAAggggEC0Bbgw7UP7MbKAD4hkgQACCCCAAAIGCxAy+tA4jCzgAyJZIIAAAggggIDBAoSMPjQOIwv4gEgWCCAQuoB+hUQ2zjigobdAnDdI74pf6xIy+tSmPOLqE6Q52VzIfFR52traZOJS5mOVsKurq66urqOmKtWnO1VTJdPpReprZkLNsSXo+Vo4gS1P2YpsNp1zGR+VQ/n5lFGEgquaXDYptJloBTU9LtCvkMiqjAPq0Y/kxQToXcV0ormMkDGa7UapgxdYs2bN6tWr9e3s3r17wIAB+pzGxsbM185U6vrUvC0yveN716VS8lU+MkctlWmVQP9aMEHvPBs/yXzS+ZX92bNnT9l5BJWBsWVrb+8ZVj2omlc03+wVEikG44BWtC3it3F6V/zalJDR/zblbLz/ppXIcdWqVcuXL1dblrOMI0aMmDt3bkNDg1WWAwcOzJw5s2PBc6mhN6Y+Ozr4z7/asmXL/L+cTF0zJp3ms6N1f3hK/m8l6PW1QIKNGzc+/vjj+ip79+6dOHFiOsMyPnKqTGKyOXPm9O3bt4xsAlnV5LJJhVtaWgKptjmZcoXEnLaIX0noXfFqU0JG/9uTs/H+m1Yix9rMR9+yxFt6yFVdXd3R0ZG63J36qkr+TU/LR33NTPSa4zqBLU/Zir5RvTxepzPFNy5kVLUwtmx+4XttLNIjgAACpgkQMvrfIpyN9980wTly0jrBjU/VEUAAAYMECBmDaQzOxgfjmsBcOWmdwEanyggggICBAoSMBjYKRUIgK8BJ66wFUwgggAAClRMgZKycPVtGwKUAJ61dQpGsbAH9RgiGaSybkwwQiJUAIWOsmpPKIIAAAuUI6DdCMExjOZKsi0D8BAgZ49em1AgBBBAoUSB7IwTDNJZIyGoFBTiHXZAmIgsIGSPSUBQTAQQQCEeAGyHCcU7eVjiHHfU2J2SMegtS/sQJcKSeuCavXIX1zial4O7GyjVFHLbMOeyotyIhY9RbkPInToAj9cQ1eeUqrHc2KQV3N1auKeKyZc5hR7klCRnDaD39SJ3D9DDEY70NjtRj3bxmVS7b2aRc3N1oVuNQGgTCFiBkDENcP1LnMD0M8dhvgyP12DexORWks5nTFpQEgYoKEDKGwZ89UucwPQzvZG1DP4ctNec0drKan9oigAACYQkQMoYl3ftIvampqbm5WW2b3/iw2iCe29HPYUsNOY0dz2Y2plb6IQr7LmOaJaoF4acwWi1HyFiB9pJ97rTpMzo72tW21W/8tddeW4GisMnoC2TPYUtdOI0d/QY1vAb6IQr7LsMby/Di5f4Uvv7X/66trbWKLcck/DJaGiZMEDJWoBVaW1vT8eK8lSk59XjlN54/jAq0RGw22fscdmyqRUUMFMgeorDvMrB5IlWk3J/C78yane5gVz5yTPL/Pvy/V77x/8oLEDJWrg34ma+cPVtGAIHSBdh3lW7HmjkCWnfKHpBIqswxSUtLS84KzKiYACFjxejZMAIIIIAAAgj0EtAiyF7z+WKAQLUBZaAICCCAAAIIIIAAAkYLEDIa3TwUDgEEEEAAAQQQMEHAuJDx5ZdffuKJJyZPniyPTVVVVW3bts0EJsqAAAIIIIAAAggkWcC4exl/+ctfHjt2TD1aLxNJbhvqjkBpAoycV5obayGAAAIIFBEwLmTctGnTuHHjRo0a9W//9m+rVq0qUnQWIYBAXgFGzsvLwkwEEIicwKlTp6TMBw4cqK6uZuj4ijefcRem77zzTokXK+5CARCIrkDPQBWL/0PG/pQRQK33DEW3RpQcAQSSKbDw4UVS8ZkzZ06aNOnm8RPkbTHJdDCk1h7OMn7++ef/k/n8M/NRoyU98sgjjrcbShv//ve/37Vrl0zIHYpjx4598MEHf/KTnwwYMMAQBfOLob9VSUrLwZb5TVbhEjJQRYUbgM0jgIAPAmpk744Fz6VOHevcuVYOgEeOHOlDvmRRkoCHkHHo0KElbEIixQULFpw9e1at297eriJOuQD92muvjRkzpoQ8k7aKxItydGW9YFCqz3uEk9YHqC8CURHQj285uI1Kq5lezqE3pi53m17IBJTPQ8hoaYwYMWLChAm7d++25hSakPsP5ISihIlXX3213Jg4a9asjo6O7du3b9y48fDhw3fffbeEj7Ko0OrMVwJyXJV9waDMuvKeLg626CEIIFBZAXnWqqurS8qg7ja7cOHC7P91p3V8y8FtZVuHrSPgr4CHkPGZZ565PfOR040ff/zx6NGjHYuybNkyiRdramokvpw6dapKP3v2bHnAZeXKlYcOHVq/fr1k65gPCdICXGqkHyCAgGEC8qxVn+qqxsZGudtMzgj0q+2ffecbB7eGNRbFQaBMAQ+Pv6xevXrevHnuL0/LGcQ33nhDyvfYY49Z8aIq7ooVK+Q8pUxv2LDh0qVLaib/IoBAEAJyHkjOAEnO8u/+/fvlumEQWyHPZApIgNhx1zKpe/pus3kr1Z1nPce3cpTLBwEEYiTgIWT0WusdO3aoVR599FHbuvK0/KJFi2TmmTNnVFhpS8BXBBDwS0DOA8kZIMmNpw79IiWfXgKDh6e/yt1mxIi9XPiCQNwEPFyY9lr1t956S1a56qqr5Nn43HXvuOMONfPtt9+eM2dObgLmIICALwLpEz/3poc4tZ46/OCDD6yRd3hAwRdkMkEAAQRiLxBgyHjw4EHhkyF15F7GXMfx48ermSpZbgLmIICAbwLWeaDMU4e5Y33zKJVv1GSEAAIIxFQgTzDnS007OzvVaYzhwzPXLHIyHTRokJyA/PLLL48fP64vlMF3LeXi/gAAQABJREFU5LyjzJETIfKvfFVXrudnPnpKphFAoDQBHlAozY21EEAAgSQLBBUynjt3TrEWGUNHhYznz5/XG0DixRdffNGa87fMR77ecMMNEjRa89WEDOggHzXd1tYmE/Iwjf48jYz+UFdX11FTlerTnaqpkul0YvU1M6Hm2BL0fA0yga1UJ0+evHz5smzw3XfflRs9r7nmGplWg6XLhLwxKZv+SqmkanpNZXZwH7Wh0DbntSLGFsxrRUJNzwP4oXLbN1baviu7H7iyNwthZ+VqE1K/6uw+Vt+jhrmnsitnvpu8+wpu31W8g/X6ZRQl+U1MpSrSuxw3KgnSzXild8lvpRQ+PSfzkd/KQqelriQJ9v9J611BhYxyllE1VL9+/Qq1mLwJRhbJuAx6AnmXjOPrZKz0a9askee4ra8yIaP52F4qI6M/ZBJIea5Pzdsi0zu+d10qpYonc9RSma0S6F9lZlAJepeq8auvvpLHWmV76t9PPvlEpvWPll5mp0slaXKT6av4Pr1nzx7f8/QlQxnIyZd8yASB0ARK23dt2ZLeg4W8s7qyRfl/kf1hasckOXrPkyD8PVWmwPZ/zNx9BbfvcuxgvX9T5DcxVZHepRXD1nl69Terd8lvpf7DJ9Pvv/++vbFD/56c3hVUyNi/f3/VahcvXizUfOoEYc8xRKFERefL8ODLly9XSeQso4wxPnfu3IaGBmslGVUkPVqYjP4gT/N9dnTwn38lfxXz/3IydU3mrTOfHa37w1OS2ErQ66ssCCaBjGT++OOP2zZ6+X+v+M9/nZwu2+fH6/5rQ7pUMnSF3IJ2+kTPV1WLK6V69dVXhw0bJt/kE/SRlhxIyZ+EPKXUt29ftUWj/rVOxxpVKgqDQBGB0vZdS5YsOX3vb9TeLJydlVShZ08lU4X2h4+sk+Pw+ftqU59+1KtUmfR79+6dOHFiEYqgF5m8+wpu31W8g/X6ZZQGaPlIWjD83pX3p9DW3yRCSP9q671L/TJKsTM/jo4d7MSJE5az77+VSetdQYWM9fX1akdgu+6s7x3kRkb5WuTKtZ4477Scp5SPvkhiGj2skYu86bOYcsv/V1Xyb88ZTfVVVrPNsX0NMkGeUtVfm66IxLKdXT3lbLg+NWSsvZBXSnXf/Q/0DIEW1vsDbbbp0prx0VvcjBJRCgQcBErbd+XZbxiwN0vvYOXTlbOPzexRZSdswl+ombuv4GSKd7Bev4zSdpkWrEjvcrVRW+9Sv4yZYsvqxTuYDEN7y63fCPp1RMnpXUGFjHKWUQbvkCdgJMCXls39yIiMKmSUU4O5S5njKMATDI5EJEAAAQQQSLJAr9ft8jqisrtCUCGjFEze7yJDMx45ckQe7MgdZ0feFqgKr14DU3ZFEpkBTzAkstl9r7TcQStvhbGyZaRGi4IJBBCIgwC/lT61YoAh4/Tp0yVklFOJ+/bt+9a3vmUr8JtvvqnmTJs2zbaIrwggEKaAPkyjbLd/3YDDhw4yUmOYTcC2EEAAAfMFAgwZZUwceWhLCLZu3WoLGeUh+ZdeekkWDRw4cNasWeYzUUIEYiyQvclBKsm1mxi3tBlVk9vLrJcPSYlyz2o7JjCjHpQCgcQJBBgyTpkyZcaMGXKicfPmzY888sjUqVMt3XXr1qmXvixdujS4+3+tzTGBAAIOAly4cQBisT8CEg7ePH6C9TiCZGo7q+2YwJ9ykAsCCHgX8BAyyiDbcmOi2oR1jChz9GEUFy9erJfh+eefl+vO8kyTjH3z9NNPywlFmd6+ffsLL7wgyW666aYVK1bo6ZlGAAEEEIixQK/HEaSeOWe1HRPEGIeqIWC4gIeQUd7dp7+XRVXMejuL+moLGW+77bZXXnll4cKFMmiihIy6hcSLu3btssbi0RcxjQACCCAQZwHHs9qOCeKsQ908COhP7+Xe5OAmI/1GiNJycLOVeKTxEDKWVuF77rlHBmeX040SIMqAO/IymLFjxz7wwANPPvmk7TUtpeXPWgggELSAvkuVbbFXDRqc/BFAwKWA/vSe7SYHNznYboQoIQc3W4lNGg8hY/pFftu2lVDzUaNGrc98SliXVRBAoLICtl2qFIa9amVbhK0jgIAlkH16L+cmBytNkYleN0KUlEORzOO3yEPIGL/Kx6lG+sl5qZecB5J/rVtOOS0Up7YOuS69dqnpXtXUuXOtzGQUnpAbgs0hgEB+Ae02BttPoXy1rZI/gZaDLT1fdQFCRl0jwtP6yXmpRm1t/1RV1YXODlUlTgtFuGkNKTq7VEMagmIggEBhAdtPYT/5Kez9cUzQOznfegkQMvbiiO6X7Ml5qUNz04Wda9N1mbcyJb/0nBaKbrtWqOT6gXjuYXqFCsVmEUAAAQcB20/hRfVTqK3kmEBLy6RdgJDRLhLh77nngXLnRLh6FD08Af1APPcwPbxysCUEEEDAq4DjD59jAq9bTEx6QsakNLV+3kjqzN2NSWn4kuqZPRBvbso9TC8pS1ZKroD+xL0vJ631DIWVvVly+xY1D1eAkDFc78ptTT9vJKXg7sbKNUVEtuz3gbj+M89vfEQ6gQ/FlBhx2vQZ1uteyj9pzSP8PrQKWSBQkgAhY0lsEVwpe95ICs/djRFswUgX2fYzzxFLpFvTU+FbW1vT8eKV+6rLP2nNI/ye/EmMgI8ChIw+Yhqfld/njYyvMAU0RaDXzzxHLKY0S4jl8H3n43uGIWKwKQQiKkDIGNGGo9gImCXg6rozP/NmNRqlQQABBDwIEDJ6wCIpAgjkFeC6c14WZiKAAAJxEiBkjFNrhl0X/cSSbJtnGsJuAGO2x3VnY5qCgiCAAAJBCRAyBiUb+3xtJ5akvjzTEPtGd6gg150dgFiMAAIIRFiAkDHCjVfZovc6sSRF4ZmGyrYHW0cAAQQQQCBIAULGIHWTkDcnlpLQytQRAQQQQCDxAtWJFwAAAQQQQAABBBBAwEGAkNEBiMUIIIAAAggggAACXJimDyCAgGcB/ZXl8qS85/VZAQEEEEAgagKEjFFrMf/Ka/vVHzlypH95k1PMBfRXlsuT8v/nP1+NeYWpXpAC+r5IpoPcFHkjgEDpAoSMpdtFfU3br/7hQweJGqPepqGVP/vK8syT8vIe4dA2zYbiJ6Dvi/rV9o9fBakRAvEQIGSMRzuWUgvbr74MmkPIWIpjYtfhYfnENr3fFdf3RRd3rvU7e/JDAAF/BAgZ/XGMai786ke15Sg3AvESYF8Ur/akNrEU4InpWDYrlUIAAQQQQAABBPwU4Cyjn5rkhQACSkB/oEHm8EwDHQMBBBCIugAhY9RbkPIjYKKA/kCDlI9nGkxsJMqEAAIIeBEgZPSiRVoEEHAnkH2gQdI3N/FMgzs2UiGAAALmChAymts2lAyBaAvwQEO024/SI4AAAr0EePylFwdfEEAAAQQQQAABBHIFCBlzTZiDAAIIIIAAAggg0EuAkLEXB18QQAABBBBAAAEEcgUIGXNNmIMAAggggAACCCDQS4DHX3pxJPmLbSC9IUOG5L4/sKmpSd4rqJQYaS/JvaX8ulv9raurS3I7ceLE6NGj9Wz1zibz83ZIPT3TMRaweovUMe+eR0+Qt6tIBztz5owiypsgxnpUrUwBfV+kOo81x9p9Wb1LthXjDkbIWGZfis/qtoH0+tcNOHzooB41yj73llu/0dnRrurMSHvxaftK1MTqb3V1dY2NjZMm3/7eu/ut/iZ75JvHT7A6mxQwt0NWotRsszICVm+Rzefd8+gJ8nYV6WBnTreo0udNUJmKsVXjBWz7Iuk8r//1v2f/rzvV3kntvr45aXLrmdNWVWLcwQgZrVZO+oRtIL3OnWvlhKL1Ey46LS0t6T+SeStTMngKI+0lvb+UW3+rv3XUVEle0rX0/ibT2c4mi5ubcjtkuSVg/egIWL2l0J5HT5C3q2S7E30pOu1uQkl77Ysyneejjz6yulNH2ydSyAudHT2/jPIl1h2MkNGEPmlMGdwMpOcmjTEVoiBGC6i+1KdbIsb85aSz5XdJ5FzHzlB+gkS6UmlXArm9S83JHPGmc8hN4CrfiCXi8ZeINRjFRQABBBBAAAEEwhcgZAzfnC0igAACCCCAAAIREyBkjFiDUVwEEEAAAQQQQCB8AULG8M3ZIgIIIIAAAgggEDGB+Dz+0t0tN9Gn2tra9BY4f/58+uvFztSFdvlX0rS3pyfSX9X89P+yCdS3oBOky5Bvo+n5F7rSW1efK8Xu9VWtGEoC0VOely5dkrLZMPOWylqlZ2ko/zt37pxsR3WAgDYYWu8q1DfK77GB9q6yit1H/irTf5t65+nV2aRRM38UeoKAGjo3W6N6V7ofVnq3kCbKKUOR3lVW31DbUq2Ss9EifxR6V1G7LxudnkBlX5F/Q+hdUq/c3Vfu35c0k40oDaLM1UT6+5U5Ml99ykvgpm9IqfL3LlUYvRg+lcrWN3pZZTZhK3YvuiulsmWiihnyv4H0LmmPeHyOHz8ecnuwOaMEjh49GlxPpncZ1dbhF4beFb55crYYaO+SvSK7r+T0pdya+tu7qqQ/5W4jinNkEPaTJ0/W19dXVaWHecv7kXNmI0aMkL+fhoaGvAkqOJOylYx/9uxZGT9SBt8fOHBgyZkUX5HeVdynnKUm93ypF73LsXENb0GTixdC75Lmc9x9mUxkctnE1uTiBdG74nNhurq6evjw4Y57N0kg8aKBIaMqOWVz04J500gHyDvfl5n0Ll8Yi2Rics+XYtO7irSdWmR4C5pcvEB7l+q9bn4cTSYyuWwibHLx/O1dAf7KOu5iSIAAAggggAACCCAQCQFCxkg0E4VEAAEEEEAAAQQqKdDn2WefreT2Q992nz59vvOd79TUmHhFnrKV3B0MoTOkGHkZKVteFjczDaEzpBh5xUwumxTY5OIZUjZDikHvyitQ8kzfmzU+j7+UbMqKCCCAAAIIIIAAAsUFuDBd3IelCCCAAAIIIIAAAilCRjoBAggggAACCCCAgIMAIaMDEIsRQAABBBBAAAEECBnpAwgggAACCCCAAAIOAoSMDkAsRgABBBBAAAEEECBkpA8ggAACCCCAAAIIOAgQMjoAsRgBBBBAAAEEEECAkJE+gAACCCCAAAIIIOAgQMjoAMRiBBBAAAEEEEAAAUJG+gACCCCAAAIIIICAgwAhowMQixFAAAEEEEAAAQQIGekDCCCAAAIIIIAAAg4ChIwOQCxGAAEEEEAAAQQQIGSkDyCAAAIIIIAAAgg4CBAyOgCxGAEEEEAAAQQQQICQkT6AAAIIIIAAAggg4CBAyOgAxGIEEEAAAQQQQAABQkb6AAIIIIAAAggggICDACGjAxCLEUAAAQQQQAABBAgZ6QMIIIAAAggggAACDgKEjA5ALEYAAQQQQAABBBAgZKQPIIAAAggggAACCDgIEDI6ALEYAQQQQAABBBBAgJCRPoAAAggggAACCCDgIEDI6ADEYgQQQAABBBBAAAFCRvoAAggggAACCCCAgIMAIaMDEIsRQAABBBBAAAEECBnpAwgggAACCCCAAAIOAoSMDkAsRgABBBBAAAEEEKiJDUFXV9fJkyfr6+urqqpiUykq4kagu7v73Llz1113XXV1UIdA9C43DRHLNPSuWDarIZUKoXdJTdl9GdLcIRcjiN4Vn5BR4sURI0aE3CRszhyB48ePDx8+PKDy0LsCgo1KtvSuqLRUFMsZRO+6kPkojU8++eSWW26JogxlLl/A394Vn5BRzi8Krug0NDQUUr506dLu3bvnzp3bt2/fQmkqNZ+ylSx/+vTp0aNHqw5QcibFV6R3FfcpZ6nJPV/qRe9ybFzDW9Dk4gXXu9asWbN69Wq97TZt2jRgwAB9DtPxFmhvb//hD3/o7y9jfEJGdT1a4sXiIaP8zUgCM0NGylbaH7D8JMiKgd6QQO8qrWncrCXNZ2zPl/LTuxwb0fwWNLaDBde7Vq1atXz5ctV2bW1tcglu/vz5hX4cpRh79uyZM2eOmb+MxpZN7R+MLV5LS4uU0N9fxviEjI77NRIggAACCCCQBIHazEevqYSDxSNCxwR6biFPm1w2oTCzeMWbu7QWDOpxgdJKw1oIIIAAAggggAACBgoQMhrYKBQJAQQQQAABBBAwS4CQ0az2oDQIIIAAAggggICBAvG/l7Gpqam5uVnRDxo0yMA2oEjRFaB3RbftzC85vcv8NopuCfXeJQM3RrcilDxMgZiHjPJXcfP4CZ0d7cp00OBrtm7ZHKYv24qxAL0rxo1b8arRuyreBDEugK131dXVNTY2njhxQkYri3GtqVr5AjEPGeX8YjpenLcyNWRkqrmp86//Xj4ZOSCgBOhd9ITgBOhdwdmSc6/elUp1tH0iJjImCyEjfaO4QMxDxp7KS7w4bFxxCJYiUKIAvatEOFZzIUDvcoFEkhIFrN5Vw1t2SyRM2mo8/pK0Fqe+CCCAAAIIIICAZwFCRs9krIAAAggggAACCCRNgJAxaS1OfRFAAAEEEEAAAc8ChIyeyVgBAQQQQAABBBBImgAhY9JanPoigAACCCCAAAKeBQgZPZOxAgIIIIAAAgggkDQBQsaktTj1RQABBBBAAAEEPAsQMnomYwUEEEAAAQQQQCBpAoSMSWtx6osAAggggAACCHgWIGT0TMYKCCCAAAIIIIBA0gQIGZPW4tQXAQQQQAABBBDwLEDI6JmMFRBAAAEEEEAAgaQJEDImrcWpLwIIIIAAAggg4FmAkNEzGSsggAACCCCAAAJJEyBkTFqLU18EEEAAAQQQQMCzACGjZzJWQAABBBBAAAEEkiZAyJi0Fqe+CCCAAAIIIICAZwFCRs9krIAAAggggAACCCRNgJAxaS1OfRFAAAEEEEAAAc8CZoWMra2tP/3pT6dOnTps2LDa2trrr79+9uzZf/rTn7q7uz3XjBUQQAABBBBAAAEEfBIwK2Rsbm7esmXLVVddNX/+/BUrVtx1110ffvjh/fff/8QTT/hUX7JBAAEEEEAAAQQQ8CxQ43mNIFcYPXq0nGisqcmW6ty5c9/+9rc3bty4dOnSW2+9NciNkzcCCCCAAAIIIIBAfgGzzjL26dNHjxelyPX19d/97ndl4siRI/lrwFwEEEAAAQQQQACBgAU8hIyff/75zp07n3nmGblePGTIkKrMZ/HixY4lbGpqeuqppyZMmCBXnAcPHjxlypTnnnuuvb3dcUVJ0NnZ+frrr8umbrnlFjfpSYMAAggggAACCCDgu0D2ErBj1kOHDnVMk5tg165dCxYsOHv2rFokkeI/M59Nmza99tprY8aMyV1Frk1v2LChq6tLglRJc/z48V//+tfjxo3LTckcBBBAAAEEEEAAgRAEPISMVmlGjBghpwx3795tzSk0ceDAgQcffFDCxKuvvnrVqlWzZs3q6OjYvn273Jt4+PDhu+++W6JHWWRbXULG1atXq5l9+/b93e9+J4/C2NKU81VKVV3dc3pVTpeOHDmynNxYFwFdgN6lazCNAAIIIBAbAQ8ho1ySvj3zkdONH3/8sTyq4qiwbNkyiRfl9kSJL2XoHJVexs2RU4YrV648dOjQ+vXrJVtbPjfccIOMqvPVV1/J+UWJL3/xi1/8/e9/f/XVV223OdrWcv915syZErmq9P3rBhw+dJCo0b0eKYsL0LuK+7C0HIETJ06cOXNG5cDhbjmSrIsAAiUIeAgZrTN/LjcjZxDfeOMNSfzYY49Z8aJaV84abt269eDBg3IBWs4+yqnE3DzlURiJHX/+85/LhMSXcmLyxz/+cW6yEuZ03LUs1XB9esXmps6da2VkH0LGEhhZJa8AvSsvCzN9EZg0+fYzp1tUVhzu+kJKJggg4F7Aw+Mv7jNVKXfs2KEmHn30Udu6cl140aJFMlOOmFVYaUugf507d658dUymr+IwPXh4ati49H9DuCTtQMVizwL0Ls9krOBWoLOjPTVvZWrxf8i/Mi2Hu27XJB0CTgKnTp3af+UjD606JWd5EgU8nGX0yvPWW2/JKvKU9KRJk3LXveOOO9TMt99+e86cObkJrDknT56Uab+uSlvZMoEAAghET0AOdOVwlw8CfgssfHjR2dae2x44h+23bkzyC/Aso1x3FqSxY8fmjfbGjx+vCFUyNf3ee+9Zz1arOadPn3766adlWkb2UXP4FwEEEEAAAQT8Fbh4oZNz2P6Sxi+3oM4yyniK6qLJ8OHD86oNGjRITkB++eWX8oyLlWDbtm0y+I48WD1q1ChZeuzYMRmj5/z58/fdd99DDz1kJWMCAQQQQAABBHwW4By2z6Bxyy6okFFe9KeocsfQsQhVyCgRoTVHXictZxn/8Y9/7N27Vx61lnG/p0+fLnc9/uAHP5DRvK1k1sSFzEd9bWtrk4lLmY+VQAZ3rKur66ipSvXpTtVUyXR6kfqamZA5kkZWslap1IQqgwklyRUwuWxS2oDQ6F25PSGIOfQu9/su296MfZebDmlyBwto3+WGhTQIlCAQVMgoZxlVafr161eoWLW1tbLIGu9GpiVAlE+h9Lnz16xZY3uOW0bzGTBggJ6ysbEx81XKc31q3haZ3vG96+S1MpmZMqfxk8xHX6WC03v27Kng1otv2tiyydFF8ZKXtpTeVZpbaWvRu9zsu7ZsSe/BMrsv9l3eOpqZHSygfZc3GlIj4FogqJCxf//+qgwXL14sVBg5iyOLes78FUpUdL4M0LN8+XKVRI7UZYxxeby6oaHBWknGVU6Pk7fgudTQG1OfHR3851/JPnf+X06mrhmTTvPZ0bo/PCVnNCdOnGitUqkJOdyUnZo8CZR3yKFKlUpt1+SySQlbWnqGHfFXid7lr2eh3Ohd7vddS5YsOX3vb9TejH1XoR5lm29yBwto32UT4CsCfgkEFTLW19erIurXnW2FlhsZZU6RK9e29Llf5TylOlVpLZJ4Sw+5ZDSf9FnMy92pr6rk354zmuqrrJOZI2n0VaysKjKRKX6eUSorUhjbRo0tW0DNR++ydYBAv9K7bAJ59122vRn7Lvd90sbrfsVAUwa07wq0zGSeZIGgnpiWs4zycgKRldcV5PWVERlVyCinBvMmYCYCCCCAAAIIIICAIQJBhYxSPXkPtfx75MiRy5cv59ZW3haoZqpkuQmYgwACCCCAAAIIIGCIQIAho3qQRU4l7tu3L7e2b775ppo5bdq03KXMQQABBBBAAAEEEDBHIMCQcf78+aqe8jppW4VlbIiXXnpJZg4cOFBGYbQt5SsCsRH49NNPr7yCaz/v4IpNs1IRBBBAIIECAYaMU6ZMmTFjhphu3rz5nXfe0XHXrVunXvqydOlS7v/VZZiOmcC9990vL8xUn5vHTyBqjFn7Uh0EEEAgOQIenpiWl0HLjYmKRr3ZRaZljryyxfJavHixNS0Tzz//vFx3lqf8ZOwbee+fnFCU6e3bt7/wwguy9KabblqxYoWeviLT6jyQ2rQ8sjNy5MiKFIONxlKg5x1c8k6F5qbOnWvlD4cOFsuGplIIIIBA7AU8hIzyKr8XX3zRJvK3zMeaaQsZb7vttldeeWXhwoUy8Jh6VbSVUuJFeRmgNRaPNT/8CTkPlP5dz3x4F3v4/vHfIu/gin8bU0MEEEAg/gIBXphWePfcc8/777//s5/9TGJEeS+L3Lw4efLk3/72t+++++7YsWNNAOZd7Ca0AmVAAAEEEEAAAZMFPJxllAvQ+jVo97UaNWrU+szH/Sphp+Q8UNjibA8BBMoV0G+qkby4r6ZcUNZHAIGiAh5CxqL5sBABBBBAIFQB/aYa2TD31YSqz8YQSJ4AIWPy2pwaI4BALASyD1dJdXi+KhZtSiUQMFmAkNHk1qFsCCCAQFEBbqopysPCkgW47aFkuhivSMgY48alaggggAACCJQiwG0PpajFfR1Cxri3MPUzSYADd5Nag7IggEBBAW57KEiT4AWEjAlufKoeugAH7qGTs0EEEChVgNseSpWL63qEjHFtWeplogAH7ia2CmVCAAEEEHAhQMjoAokkCPgowIG7j5hkhQACCCAQlgAho12au83sInxHAAEEEEAAgcQLEDLauwB3m9lF+I4AAggggAACiRcgZLR3Ae42s4vwHQEEIiKgXyTh/YERaTSKiUBkBAgZ8zUVd5vlU2EeAggYLqBfJOH9gYY3FsVDIHIChIyRazIKjAACCOQXyF4k4f2B+YWYiwACpQsQMpZux5oIlC/AlcTyDcmhlwAXSXpx8MU3AXZWvlFGNiNCxsg2HQWPhQBXEmPRjFQCgfgLsLOKfxs71ZCQ0UmI5QgEKcCVxCB1yRsBBHwTYGflG2VkMyJkdG46zsY7G5GiHAGuJJajx7oIIBCaADur0KiN3BAho3OzcDbe2YgUCCBgnoB+uCulY9gd85qIEiEQJQFCRufW4my8sxEpEEDAPAH9cFdKx7A75jURJUIgSgKEjO5ai7Px7pxIhQAC5ghkD3elTAy7Y07DUBIEoilAyBjNdqPUCCCAgBsBDnfdKJEGAQRcCFS7SEMSBBBAAAEEEEAAgUQLEDImuvmpPAIIIIAAAggg4EaAC9NulEiDAAIIIIAAAlkBnsfPWiRmipAxMU1NRRFAAAEEEPBJgOfxfYKMUjaEjJ5bi0Mrz2Ss4EWgqampublZrcFAel7kSIsAAuEJ8Dx+eNbGbImQ0XNTcGjlmYwVXAvIAcm06TM6O9rVGgyk51qOhK4E9CNeDkhckZGoiADP4xfBieMiQkbPrcqhlWcyVnAt0Nramo4X561Myb6YgfRcu5HQpYB+xMsBiUs0kiGAgBIgZCypJ3BoVRIbK7kVoIO5lSKdN4HsES8HJN7kSI0AAilCRjoBAgggkCQBDkiS1NrUFQEfBQgZfcQkKwT8F9BvPpPcuf/Mf2JyRAABBBBwIUDI6AKJJAhUTkC/+UxKwf1nlWsKtowAAggkWoCQMdHNT+XNF8jefCZl5f4z8xuMEiKQVAH9kgjXQ2LZCwgZfWhW/k58QCSLIgLcfFYEh0UIIGCGgH5JhOshZrSJz6UgZPQBlL8THxDJAgEEEEAgygLZSyJcD4lyOxYpOyFjERy3i/g7cStFOgQQQACBGAtwSSTGjZtikB2/Wpe/E78kyQcBBMIS0G+qkW1y/1lY8GwHgUgKcJYxks1GoRFAAIHyBfSbaiQ37j8rn9SQHC5kPqowbW1tMnEp81Fzurq66urqOmqqUn2603NkIpXKzqmpkmmZoyfoNcddAtmKbDOdfxkflUP5+ZRRhGKrmly8INAIGYv1htKWceBemhtrIYBAyALZm2pkw9x/FrJ+kJtbs2bN6tWr9S3s3r17wIAB1pzGxsbMdGfm3+vk3y1btlyZc31qnloqM1QC2xzbV0lmm5P++knmk8mz3H/27NlTbhZBrm9m8drb232vNCGj76QpDtz9NyVHTUA/JuFKogbDZEkC3FRTEpvhK61atWr58uWqkHKWccSIEXPnzm1oaFBzDhw4MHPmzI4Fz6WG3pie0/LRju9dt2TJktP3/iY957OjdX94SmZnE9jm2L5KUtuczNe9e/dOnDgxnX8ZHzlVJgHZnDlz+vbtW0Y2Qa1qcvFaWlp8rzYho++kKQ7c/TclR01APybhSqIGwyQCCPQI1GY+OoeEXFbUVV1d3dHRkbrcnfoqfUk6PSEBojXncnd6Ws2/kqDXHHcJPvvssw8++CCdT+ZTzvGtXvgr+Rn0fzOLZzW3j1KEjD5iallx4K5hMOmvQPaYhCuJ/sqSGwII+CegH9xKrhzf+kdbsZwIGStGz4YRKF2AY5LS7VgTAQTCEMge3MrWOL4NgzzwbRAyBk7MBhAIVEC/tVE2VM7Vn0DLSeaRENC7E30pEk1mdCE5uDW6eTwXjpDRMxkrIGCUAFd/jGqOqBdG705cSYx6a1J+BPwVIGT015PcEAhbgKs/YYvHenvZ7sSVxFg3NJVDoAQBQsYS0DyvwrUez2Ss4EmAqz+euEhcXIDuVNyHpQgkVYCQMYyW51pPGMps44oAhyhXJPg/AggggIBvAoSMvlEWyYhrPUVwWOS7QO4hyrXXXuv7VsgwCQL64YfUlwdiktDowdVR7070peCcg8uZkDE42945c62ntwffghPIPUQhZAxOO94564cfUlMeiIl3cwddO7070ZeC1g4if0LGIFTJE4FKC3CIUukWiMf2s4cfUh8eiIlHo1auFtnuRF+qXCuUs2VCxnL0WBcBBBCIuwCHH3Fv4VDr17s7NTU1NTc3qwJwqTrUhihpY4SMJbGVvRJ/J2UTkgECCCCAQIQF5NbGadNndHa0qzpwqdr8tiRkrEAb5f074W6zCrQEm0QAAY8CPMHgEYzkBQVaW1vT8eK8lSk59cil6oJOBi0gZKxAY+T9OyFkrEBLsEkEEPAokPsEA/suj4Qk7y3Q+1J172V8M0uAkLFy7cHfSeXsE7VlOS3U1dUlVT5w4EB1dTU3DCWq9X2vbO4TDISMviOTIQJmChAymtkulAoB3wTktFCf6qrGxsaZM2d2dHRww5BvsonNiMPdxDY9FU+2QHWyq0/tEYi/gJwW6rhrmdSzY8FzctuQ3DxkPaIY/8pTQwQQQAABnwQ4y+gTJNkgYLLA4OHp0g29MXW52+RiUjYEEEAAAWMFOMtobNNQMAQQQAABBBBAwBQB40LGl19++Yknnpg8eXJtbW1VVdW2bdtMoaIcCCCAAAK9BeThKnmsSubJv/v375cRZ3sv5xsCCMRHwLgL07/85S+PHTsmD3XKU3gyER9paoIAAgjEToCHq2LXpFQIgYICxp1l3LRp08cff/zFF1/86Ec/KlhqFiCAAAIIGCDAw1UGNAJFQCAkAePOMt55550hVZ3NIIBARkB/faXMYOBG+oU3AR6u8uZFagSiKuAhZPz888//J/P5Z+bT0tIilX7kkUccbzeUH6Tf//73u3btkgm5Q3Hs2LEPPvjgT37ykwEDBkSVjXIjEBcB+au8efwE6zWvUi0GboxL21IPBBBAwE8BDyHj0KFDS9iyRIoLFiw4e/asWre9vV1FnHIB+rXXXhszZkwJecZvFd7PEb82NblG+muCZTr7mlcpNG96NbnlKBsCsRbQd01SUfVUQ6xrHLHKeQgZrZqNGDFiwoQJu3fvtuYUmpBn6OSEooSJV1999apVq2bNmiUvn9i+ffvGjRsPHz589913S/goiwqtnpz5ubeQv/7X/5YzskqAC4XJ6Qnh1FR/TXC/2v7pjfI+j3Do2QoCCBQW0HdNkkquePy/D/9v4eQsCVvAQ8j4zDPP3J75yOlGeUJl9OjRjoVdtmyZxIs1NTUSX06dOlWlnz179rhx41auXHno0KH169dLto75xD5B+rWt966Saqbfz3HqWOfOtd+ZNTs9M/PhQmHsO0DIFUx3rXkr02Fic9PFnWtD3jqbQwABBPIKZHdNsjhzxUPdApc3MTPDF/DwxPTq1avnzZvn/vK0nEF84403pEqPPfaYFS+qGq5YsULOU8r0hg0bLl26pGYm/V/rFnL5IU+lev5yFv8Hb3hLescIqP7qtGKmswW0BbJFAAEEPAuoXdOwcelj2lTq1KlT8i+jfnpmDGYFDyGj1wLs2LFDrfLoo4/a1q2url60aJHMPHPmjAorbQn4mhbgR51+gAACCCCQYIGFD6dDhZkzZ06aNEke1JPH9RKMUfmqBxgyvvXWW1K/q666Slo6t6J33HGHmvn222/nLmUOAggggAACCCRcQN2glb5la95KeVCvubk54SCVrb6Hexm9FvTgwYOyigypI/cy5q47fvx4NVMly03AHAQQqJSA/tyiPH0lxdD31DyPVal2YbsIJFRg6I2py90JrbtJ1c4TzPlSvM7OTvUbM3z48LwZDho0SE5Afvnll8ePH9cTyOA76rzjBx98IPPlq7pyPT/z0VMyjQACAQnozy3WyiPVVVUXOjusbfE8lkXBBAIIIJAcgaBCxnPnzinEImPoqJDx/PnzOrfEiy+++KI152+Zj3y94YYbJGi05quJC5mPmm5ra5MJeZhGf56mq6urrq6uo6Yq1ac7VVMl0+nE6mtmQs2xJej5GmSC3FKlNyqf6mw59VJJRfR6pVOG+FGbrmABitc1oIJVqnfl7xvSgeVzpQ/rfUNmu+qxkq5A78qbQ/oRfnkk6/SJ6v/aIAl6vsrE6RNV/7VBBvaXt8Cn55f9oXe533cF1Td87V0nT56U/ZXqF9dcc02hswZ6xzlx4oT1YKzLVfTVi0+b3MEC2ncVB2EpAiULVHV3l3Ky1xpkp9DbX+Tc4ciR6cedHn744Zdeeilv+SSBJLvxxhuPHDmSN4HjzGeffVae49aT/fGPf+SlMjpIEqZlIKeHHnpIhotvaGjwsb70Lh8xo5sVvSu6bWd+yQPqXbaKyzHJ1772NX0PuX///vQzBjIihzyYLJ/mIzvmXf+v//qvHd//XXrOqf8vte3J9HwrgW2O7auktM2xfS2Q4OWXX164cGHPVgqsIodJjY2N8//ZP/XJESnVvn37vvnNb6bLZsZHgn55Kcm//Mu/9O3b14wSZUshh2FyE5He7tllpU4FdZaxf//M+MAyWMzFi4XKJmdxZJF0iEIJHOfL8ODLly9XyeSvQsYYnzt3rh43yJP58qRV+s5ZuRPis6OD//yrLVu2zP/LydQ1Y9JrfXa07g9Pyf+tBL2+BpZARjJ//PHH7Rt9ZN2O7103f19t6tOPehUjU8i9e/dOnDgxXeZKfOSvYs+ePXPmzDHwr0I8rPMT/tpUpHfl7xuqA0v1Su6xRXuXZNzTG11vwscOSe9yv+9asmTJ6Xt/o/ZmvfYSrhsu29a2vlRODrm9665l6hR13X9tcOwqPXtpL6tIYd1/TO5gAe273OOQEgFPAkGFjPX19aoctuvOeuHkRkb5WuTKtZ4477S8H0U++iKJafSwRkbzkffNpG+b/apK/k1Py0d9zUz0mhNigvylkiJ15ZQzUyqpiF6vdC1C/2RojTuQEoaAZCrVu/L3DenA8rF1UdvX4glkaYHepXJO/40Uz0FL4HuHpHfZBPLuu4LqG1rLZjtDOb2r4frUkLGquzp2lZ6aelklXUiPHxuvx7WDSh7Qviuo4pJv4gWCChnlLKOcEZUnYOQmlbzIMiKjChnl1GDeBMzUBfQnWGU+j6zqOEwjgIDJAjKWnvXEPfsuk1uKsiFQXCCokFG2Ku93kaEZ5T7Fy5cv546zI28LVCVTr4EpXkqW6k+wigaPrNIlEEAgEgJyuDtt+gwZUU+Vln1XJFqNQiKQVyDAobynT58um5RTiXK/au6233zzTTVz2rRpuUuZYxPIvj+QVwjaaPiKAAIGC7S2tqbjRXmnOfsug5uJoiHgRiDAkNEaE2fr1q22osgQDOox6oEDB86aNcu2lK/5BXq/eTN/GuYigAACBgrw+lMDG4UiIeBRIMCQccqUKTNmzJDybN68+Z133tELtm7dOvXSl6VLl3L/ry7DNAIIIIAAAgggYKCAh3sZZZBtawBF615mmbNt2zarYosXL7amZeL555+X687ylJ+MffP000/LCUWZ3r59+wsvvCBLb7rpphUrVujpmUYAAQQQQAABBBAwUMBDyCjv7tPfy6IqY72dRX21hYy33XbbK6+8ImN1ysBjEjLq9Zd4cdeuXdZYPPoiphFAAAEEEEAAAQSMEgjwwrSq5z333PP+++//7Gc/kxhR3ssiNy9Onjz5t7/97bvvvjt27FijLCgMAggggAACCCCAQF4BD2cZ5QK0fg06b3Z5Z44aNWp95pN3KTMRQCByAvpAoWqkPdvYe1Ij6/YVmWY0vsg1MQVGAAEEbAIeQkbbmnytrEDub3Zly8PWEyWgDxQqI+29/tf/nv2/7rTG3qut7Z+qqrrQmXnZUsaF0fgS1T2KV1bfd0lK+Vo8PUsRQMAQAUJGQxrCczFsv9mHDx0cOXKk51xYAYGSBHoGCpWRU5qbOneu/eijj3rG3svMubBzbTpXGYpPvsonk0ZOOtJF0xqJ/+j7LsHoJwcYfBBAIAoChIxRaKV8ZbT9ZvN7nA+JeUEKqJH29C3Y5ti+6imZTrBAdt8lCM1NF9UBRoJBqLp7Adspau54cU/nS0pCRl8YK5QJP8kVgmezCCBQlgD7rrL4kruy7RQ1d7yE3BUIGUMGZ3MIIIAAAsUEOJNUTCfZy2ynqOWuGK6whdkjCBnD1GZbCCCAAAIOApxJcgBK+GJOUVeuAxAyVs6eLSOAAAII5AhwJimHhBkIGCFAyGhEM1AIBBBAAIGsAGeSshZMFRPQb2PgaZhiUn4sI2T0Q5E8EEAAAQQQQCB0Af02Bp6GCZqfkDFoYfJHAAEEEChLwOuZJP1dRF1dXWVtm5XNFsjexsD4r8G3FCFj8MZsAQEEEECgDAFPZ5IkXrx5/ATrXUR1dXWNjY0nTpwYPXp0GUVgVYMFuI0hrMYhZAxLmu0ggAACCJQk4OlMkoy6kn0XUSrV0faJbLOlpYWQsST7+K+kn5Pmbsji7U3IWNyHpQgggAACBgh4PZNkpa+pMqD0FMFQAds5ae6GLN5OhIzFfViKAAIIIIAAAvEU6HVOmrshnRqZkNFJiOUIIIAAAgggEGMB65x0jOvoR9Wq/ciEPBBAAAEEEEAAAQTiLMBZxji3LnVDAAEEEEAgOQL6eExSax5n8bfpCRn99axYbvydVIyeDSOAQLgC7O7C9Y7S1vTxmKTcPM7ib+MRMvrrWbHc+DupGD0bRgCBcAXY3YXrHaWtZcdjklLzOIvfTUfI6LdohfLj76RC8GwWAQTCFmB3F7Z4tLbHsyyBtRchY2C04WfM30n45mwRAQQqIsDuriLsbDTZAoSMyW5/ao8AAggggEB8BfQ7X3kapsx2JmQsE5DVEUAAAQQQQMBQAf3OV56GKbORCBnLBGR1BBBAAAEEEDBUIHvnK0/DlN1EhIxlE5IBAggggAACCBgrwJ2vPjUNb3/5/9s7F6Adqj+O0+t+v+SScouRlCT3XIuo1IiKDGKIxiVSNKQZmfgLTZokijJqGtdpGqULhVBukeSaS3JLrr3uL9H/+/rV6djdZ599dvfZZ999v89MT2fP/s45v/M532ffn7N7zvoEktWQAAmQAAmQAAmQQHQJMGSM7tiyZyRAAiRAAiRAAiTgEwGGjD6BZDUkQAIkQAIkQAIkEF0CDBmjO7bsGQmQAAmQAAmQAAn4RIDLX3wCmfWr2bdv37Fjx1Q/nOxf5aKIqp+JbE5AiefKlStAceDAgbS0NKVAS/mpIrCHAb6VveRUqFABCX5IIC4BXUswNshJ5KfbWAoybis0CCEBfZtGuIfDEDoZWpcYMoZ2aAJ1DBfHW6rfeuH8OdVq3P2rXBRRlTORzQno4smfP/+sWbPuuqvO+QsXMi6cFzJm+elFYJM3b74cOXMqe+SYi2RzyOx+LAIGLcHMICdoack3X9/bspW6JFJdsWBmuXx9m0Y4nwdXEn4cE2DI6BhVpA0xW5N5cXzohRzYjAAfB/tXuSgSaYTsXAIEdPGcz5UTJTMyrsaLokAr+elFoM+Mz8ZntpeIYhPwj6aRJnCNltBTg5yuym/Pnj3/XRKtBBlpQlHu3H/bNF4d+otyJYlyj/3sG0NGP2lm+bpcbF7lokiWx8QO+ERAxJP2d44cF/6pMa6cDAaGQ5/8YjXZgoBZPE5ysgWaqHfSPNBR77Ff/ePyF79Ish4SIAESIAESIAESiCwBhoyRHVp2jARIgARIgARIgAT8IsCQ0S+SrIcESIAESIAESIAEIkuAIWNkh5YdIwESIAESIAESIAG/CDBk9Isk6yEBEiABEiABEiCByBKIzorpv//Gusscp06d0sfqzJkzmYcXL+TIOIdv2Jw7l5nIPJT8zP/9ZyBHyTbI9MGq0cz8jCuZrcvnX7evOZSCDgzQdwONf+qx+t81oP5tQtVw6dIl+IbacufOrUrbF1FmASROnz6NVkQASWouMHXF0oZ3xfqrrkzOmj6duK3khKLXiCcNv8rM36ahTt3eWMTwGxFnrlbrXPOZzTn4hEpdmZQ07Jnuy6EkpDupMLBRlxNt/NeRGCMb10BXyzXqukoGPtgbCDmdrdltvYZ/7D3/LwB1wUfz5csSUfDqMkPOJHqtpOFVppn5L6NYZhb4t4hb8RhqSGigLf84XvUp9V9JURfGIxqf/fv3p36I6EHqCOzevTt5Sqa6UjewoWiZ6grFMETUiaSqC1dFXr4iKhxH3fJXXTmhJ0fNht4Irx07dOhQ4cKFc+bM3BnY8oMZiPLly+P3U6RIEUuDFGbSN9fw09PT8aa4kydPFitWzHUl9gWpLns+Xs6GWfnoF9UVd3BDPoJhdi8AdWH44l6+wowozL6BbZjdS4a6onNj+rrrrrvpppviXt1ggHgxhCGjeE7fnIygpQ0EYJnvSybV5QtGm0rCrHy4TXXZjJ2cCvkIhtm9pKpL1Ovkj2OYEYXZNxAOs3v+qiuJf2XjXmJoQAIkQAIkQAIkQAIkkCUIMGTMEsNEJ0mABEiABEiABEgglQTSXn755VS2H3jbaWlpLVq0yJUrjHfk6ZtrOYQEXUjcsMRI3yyxOMkMCbqQuGFJLMy+weEwuxcS30LiBtVlScB1pu/DGp3lL66ZsiAJkAAJkAAJkAAJkIA9Ad6YtufDsyRAAiRAAiRAAiRAAjkYMlIEJEACJEACJEACJEACcQgwZIwDiKdJgARIgARIgARIgAQYMlIDJEACJEACJEACJEACcQhkl5Bx3759Q4YMufXWWwsWLFiiRIn69eu/9tpr/7zgMg4iT6c3bNjwv//974EHHsBbZ/LmzVuoUKFq1ar16NFjxYoVcev98ssvO3TogC1YURDfSCMnbimPBi+88AJenyOfZcuWxaotSN+OHTs2fvz4xo0bly1bFijKlSvXoEGDoUOHrlq1KgzuwQeqK9ZAGPKpLgMQJ4epUhd8y1qXL6rLiZwMNlSXAUisQ6rrHzLJey1veGr+7LPPihYtapbCLbfc4u/rFw1dbtasmblRldOtW7eMjAxDETnE+5369OmjLPUE8nHWspT3zI0bN+rbDy1dutRcZ8C+zZ07t2TJkjoBlW7Xrl3K3YMDVJd5FCxzqC5LLPaZqVIXvMpaly+qy15IlmepLkss5kyqSzHJoVJRTWCwCxQogDgDM3xjxoz5/vvvv/nmm969e0vkUb169dOnTyep71WqVEErmBUbNGjQ/Pnz165di4mx119//cYbb5TWO3fubNn0iy++KAa1a9eeNWsWCuIbackcMWKEZSmPmZcvX65Xrx6aKF26tDRkGTIG6dvMmTPlZUdwaeTIkYsXL16/fv3ChQvffPPN++6777HHHjN3OUj30DrVZR4CyxyqyxKLfWYK1QXHstDli+qyF5LlWarLEos5k+rSmUQ/ZMTG3QiAMHmGYFHvOe51SmA0atQoPd/HdNu2befMmfPXX38Z6jx69ChuT0vry5cvN5zduXOnTPXVrVsXt87V2bNnzyJH+rJr1y6V71di4sSJqBwx9PDhw8U3c8gYpG9bt27FbWh40rRp0z///NPcTfMcbZDuiT9Ul3lcLHOoLkss9pkpVBccy0KXL6rLXkiWZ6kuSyzmTKpLZxLxkBHzcxL9PP3003q3kcY/HfBoI84WL1784sWLhrPJPvz000/FsYEDBxra6tevn5zClKThlHp6b8CAAYZTHg/xRAtmYdEuwkTM54kD5pAxSN9atmwJN66//npE2A57F6R7cInqcjguVJdDULpZaNUFJ0N1+aK6dNk4TFNdDkFRXQZQEQ8Z1W3K1atXG3qOw7Fjx0pstGjRIvPZpObgbrg0jX/K6w3hSUG5bY3ZPj1fpfH8JQpiNYy/TzQ+9NBDqLZ79+5oKFbIGKRv27ZtEz54oaXqu30iSPfEE6rLfkTUWapLoXCeCK260IVQXb6oLueiUpZUl0Jhn6C6DHwivmJaFiZjlXSdOnUkBNG/mzdvLocrV67U8wNIY15TWpFn9VSLv/7668GDB3GofFOnJCH5Bw4c2Lt3r+GU60MsMcFz0FhIPmHCBJtKgvRt3rx54snjjz8uiZMnT+K+8/Hjx2N5GKR74gPVFWss9HyqS6fhPB1adaEL4bl8UV3OFaVbUl06jVhpqstMJuIho0xWVa1aVV8IrChgJk/Sak5LnUp24ttvv5UmlA8GTwz5yh+V75fPeEwQq3NQ/7hx40qVKqUaMidUi8oHg43KV5YGA+eHmBWGMda54+GBjz76qFatWoho8QAo7lPffPPNePz0zJkzhtpUo8oNg4HKV5YGg0QPpR6qy4Yb1WUDx/5UaNUFt0Ny+aK67CVkc5bqsoEjp6guS0RRDhkvXLiALf3QbdzGtew8nmLEBCRO7d+/39IgSZm4hfrqq69K5R07dtRbUZ7E8hn7O4q9stSLu0hju6nDhw/ffffdvXr1si+uWgzAN6x9gTOVKlV65plnunbtumnTJuUbZhNxt7pRo0aHDh1SmUgE6R6ao7p0+LHSVFcsMvb5oVUX3A7P5YvqsldRrLNUVywyej7VpdNQ6SiHjOqBG1nYofqsJyRkNE9Z6Ta+p7ECS54+bt++vSyCVk3E9Vkchr0vPuOO/PTp0zEFO3XqVGzfrdywTATp24kTJ+DD9u3bJ0+eXKxYMbh35MgRXOnWrVuHfdFxavPmzbhnjb9eytUg3UOjcZuDDdVFdSl9JpQIrbrQi5BcvnjtSkhRujHVpdOwTFNdlliQGeWQERGGdDtPnjyx+i/buJw/fz6Wge/5uKczbNgwVIu9BqdMmWKoP67P4jBKefcZDyRhY3A83Dp48OCaNWsaPDEfBukbdhSCA9hGJy0t7YsvvsCCd9w0R98RYeOxS4kasWvSxx9/rPwM0j00Grc52FBdVJfSZ0KJcKoLXQjJ5YvXroTkZDCmugxADIdUlwGIfhjlkDFfvnzSVfWwtt5zSSMoQSJ//vzmU8nI2bJlC2YWsVMjggk8WlumTBlDK3F9Fod98RlvMsQTLRUqVFBLpA3OGA6D9E21hanEhg0b6p5gwZBapoMdztUpVSTWcPuIDo3GbQ42VBfVpfSZUCKE6oL/4bl88dqVkJwMxlSXAYjhkOoyANEPoxwyFi5cWLpqcw9XZrNs7lzrsDym8RBe69atsfIXM2eIdSzXRMf1WRyGJx59xj1f2WNo0qRJ6ma3fQcD8w1uqLZkQtHg2G233SZbEeE+tTqlisQabr/QSYtxm4MZ1UV1KX0mlAibuuB8eC5fvHYlpCWzMdVlZqJyqC6FwjKRyzI3Gpn4txQW2GIFDLaksewRojf5o67WlFia+ZKJtRqtWrXCNx4ZfP/99zHXaFmtWlkSy2e1yMOjz3ggCbNxWH2MF8zMnj1bdwaPCcrhkiVLsDIG6YcffhhhZWC+oUX0TppWjeoeigF2I8IDjipfWSYbnbRIdSny5gTVZWaSUE6o1AXPQ3X5oroS0pLZmOoyM1E5VJdCYZmIcsiIDmOLFmxAhdfr4V6weZ8d/HtCoMhrYCwB+ZKJsBXvRN6zZw9qw7zLk08+GavaGjVqyCnlm8FS5Xv0We6ZwiW859rQhDp85ZVXJI0JBoSMgfmGRjGPKDOIeEmP8kdPSL4+pkG6J55QXfqI6GmqS6fhLh0SdcH5sF2+qC53itJLUV06DT1Ndek0zOko35hGb5s0aYJvTCWuX7/e3Hm1u1jjxo3NZ/3KSU9Pb9Omjewag711+vfvb1Nz5cqVy5UrBwPlm8EY76RGDm7LYgMaw6lkHwbpW7NmzaQ7u3fvtuyXxN9ye1oMgnRPWqS6LIfGXWaQw0d1OR+jaFy+qC7DiIfh2gWXqC7DuMQ9TP21y/A2mIgdrlmzRsbA5h3T2MMFt2iT1HFEqyoeHTFihJNW+vbtKz7bvGMaL1N2UpU7G7UaxvyO6cB8w8RG7g35smMAAAzrSURBVNy5wQGzs+ZeLFu2TBBhL0n9bGDuSaNUlw7fYZrqcggq5eqCn1nu8kV1UV3J++NIdUFdEX/HNHrYtGlThBe4g4k9WfSf0/jx4yXsgA70fB/TmOLGehdpBW9YcVjzjh075H4rNpTBg4aqFNKyiSPO/vLLLyrf94TNDyNI31T8h6VCeh9PnTp15513ClVsb6mfCtI9aZfq0vk7SVNdTiilXF1wICtevqguqit5fxypLqgr+iHjhg0bZA8dLDHG4nlM3WFVB/YjlJgD76BDCOL8Z5aQZYcOHaSVe++9F+8v+dnqgyjHXKds3IiytWvXxtoUPNWHb6SltuHDh5uL+Jhj88NAK4H5hqUt2KIFXUaIPGDAAIzaDz/8MGPGDPXeP8SU5l4H5p40TXWZh8A+h+qy56OfTaG64EZWvHxRXbp+7NNUlz0f81mqC0yiHzKikwsWLChSpIjEW/o34sWdO3ealeFXjt5WrHTFihXNzWFtR8+ePS2L4FYszpqL+Jhj/8MI0jc8AIo3OFtyAB/LxwmCdE+YU10JaY/qSghXqtQFJy1/d4bMsF2+qC6qKyECCRlTXZmXhYSQZV3jvXv34h0niBELFCiAhxdxh3fcuHF4UiepPTJcXi0PLa+54tXChQvbtWuH1TB4ew2+kf7888+T6rBUbv/DCNg3bLKIjbsbNGhQokQJcMBOOp06dcKMoz2HgNFRXfbDoZ+lunQaTtIpURccs7xeGTLDdvmiupwoSrehunQa9mmqC3xy4j/DVYCHJEACJEACJEACJEACJKATiPgmO3pXmSYBEiABEiABEiABEnBHgCGjO24sRQIkQAIkQAIkQALZiABDxmw02OwqCZAACZAACZAACbgjwJDRHTeWIgESIAESIAESIIFsRIAhYzYabHaVBEiABEiABEiABNwRYMjojhtLkQAJkAAJkAAJkEA2IsCQMRsNNrtKAiRAAiRAAiRAAu4IMGR0x42lSIAESIAESIAESCAbEWDImI0Gm10lARIgARIgARIgAXcEGDK648ZSJEACJEACJEACJJCNCDBkzEaDza6SAAmQAAmQAAmQgDsCDBndcbMulZ6ePnny5AcffLBSpUoFChQoWrRotWrVunTpMmfOnMuXL1uXYS4JOCNAdTnjRCs3BKguN9RYxhkBqssZp6xg9Tc/PhGYNm1ayZIlY415jRo1VqxY4VNTf0srI0eO9KtC1/VUrFgRznTv3t11DSzohADV5YQSbdwRoLrccWMpJwSoLieUsooNZxljxXiJ5Q8dOrR3797Hjx/PlStX165d586du2bNGsSI06dPb9myJeraunVrq1at5s+fn1i9tCaBHDmoLqogeQSoruSxZc1UV9Q0kFVi2zD7+dZbb4ksypcvv3HjRrOrs2fPzpMnD2zw/eOPP5oNEs2R5jjLmCi3rGhPdXEOO3m6pbqoLqorGQSiev+Ns4xe/w3w22+/DRkyBLUUKlRoyZIltWrVMtfYqVOnmTNnIv/ixYvdunWDQM02zCEBMwGqy8yEOX4RoLr8Isl6zASoLjOTKOQkI77OVnU+++yzooMJEybYd7xt27ZiuWDBAmVp/28R/AsYRWBjsLdUnvrn8tKlS8UACSy7effddxs1alS8eHGsyLnjjjvGjBlz7tw5VaFKNG/eHKXwrXL0BGY0pU6VKfaWnsSqRJVlwiEBqsssMKrLoXjimlFdVFdckbg2oLoiqS7OMpqHNYEc/Jw++OADFMifPz+eZbQvOXDgQDGYMWOGvaVfZzGpiTi1T58+q1atOnnyJCLFTZs2jRgxok6dOr///rtfrbCeJBGgupIEltWCANVFGSSPANWVPLaprTlXapvP6q1v2bLlxIkT6EWzZs2wpY59d7AOBvN8iNtWrlxpb2lzdtGiRQgEa9asCZu+ffv269dPGWMeUaUl8dJLL61bt65169awxHOW+/fvf/vttxcvXrxt2zaEkmvXrsViHUMR54cIfM+ePdumTZtDhw61a9du9OjRqmzBggVVmgnXBKguqsu1eOIWpLqorrgicW1AdUVVXe4jBtdiilLBn376Sbpz1113xe1XWloannTEhN/Ro0cRZpUrVy5uEbMBNnpUmaVLl7799tvVoTmBeBFTjO+8846cwuTiI4888tRTT7333ntYhYP8/v37m0s5zKlcuTIsc+fOje9ixYrZe+KwTprpBKguqkvXg79pqovq8ldRem1UV1TVxRvTus4TTh87dkzKlC1b1knhMmXKiBm243Fi79EGzU2cONFQyRtvvFGqVClkYsbRcIqHoSJAdYVqOCLmDNUVsQENVXeorlANh4/OMGT0BPP06dNS3uGtWGV26tQpTw07K9yxY0fcCjfYYmU38pGJrSL5RKMBTqgOqa5QDUfEnKG6IjagoeoO1RWq4fDRGYaMnmAWLlxYyp85c8ZJRcqsSJEiTuw92tSrV8+yhvr160v+5s2bLQ2YGQYCVFcYRiGqPlBdUR3ZMPSL6grDKCTDB4aMnqiqNwQePnzYSUV//PGHmKmCTkq5tsHDjpZl1f1xWbtjacPMlBNQIqG6Uj4W0XOA6oremIanR1RXeMbCX08YMnriqTbuxmqSuBVhi0TscQMzPErobu1L3CYMBjlz5jTkyCF2QLDMZ2aoCFBdoRqOiDlDdUVsQEPVHaorVMPhozMMGT3BxDLhEiVKoIrly5enp6fb1/X1119jhx3YNGnSRFled13mEFy5ckXl6AnsYqMfJppWk5qGgkeOHJEccV7SSfXE4AAPnRCgupxQoo07AlSXO24s5YQA1eWEUla0YcjoadQwjYcXAKKK8+fPT5s2zb6uSZMmiUGPHj2UpTzzgX22VY6e2LFjh36YaBqb7FgWUfn4YSsDd57EmshU1TLhmgDVRXW5Fk/cglQX1RVXJK4NqK7Iqgv3KPnxQmDPnj158+bFTwsrkXfu3BmrqlmzZsnPr0aNGrhDrcywCTbycZ8aE40qUxI///yzFNFfGCin8uXLh1PDhg0zFJFD9cJAbP1jfjcgluDIM47wRC8+aNAg1JknTx6s5tbzkcasJF5vI84YTlWvXh35TzzxhCGfh74QoLqoLl+EZFkJ1UV1WQrDl0yqK5Lq4iwjhtXTBztajx8/HlUgFMP7XdQWpnqlc+fOlbdFIyD78MMP5RawGMibmrGzt4opJR+bFPTs2VOvRE/fcMMNONy9e7eeaU5j2cTzzz9vyH/uuefkxjReCaOfEk/wahk1GypnL1261KtXL0yj6sYq7dATZc9EQgSoLuCKq/OEkNJYEaC6qC4lBt8TVFc01eXLvydYiUzRQSJ4BR9uVc+bNw+v4/vuu+/wnhXEkfJrRLw4e/ZsAytEb7LhDiYOR40atXr16jVr1kyePLlKlSrIqV27NsqaZxm7dOmCfMxuTp06FZORmN3EB08uSuVqlrFu3bowu//++z/55JP169fjG28xEmdQM2JB3ZmMjAw0hLOIaAcPHrxixQrcv8ZbAWGJOfYGDRpIQb0I0nhjteSPHTt248aN4smBAwcMZjz0QoDqorq86Me+LNVFddkrxMtZqiti6sp8OT0/vhCYMmWKvppEAin1jRu4y5Yts2wIc5B4l6CylATiRTU3aQ4ZsUBb7obrpTCRKfWrkPGrr77CC6Z1G0nDmYMHD5qdQZioNhtXpeAbXiEzcuRIyTGUQnRo7jUmLA1mPPRIgOpSgqS6PGrJXJzqorrMqvArh+qKkroYMvr1u8isB6tYcFcXs3rly5dHzIenGzFZiOf8cNPZMKVnaBUzi+3bt8fmO5iJRFkEf9hkGzZyO9scMuLUhg0bOnfuXKFCBRU7mkNGxI54bhIvBmzYsCFeA403wdSsWXP06NHmBxyVP9u3b8csKZ6txCsycdP50UcfxVwpzsYKGXFq165duHNdtWpVdFl+G/yjrnj6mKC6qC4f5WSoiuqiugyS8PGQ6oqMunJCFtIZfkeGAKYz77nnHnQHIWOLFi0i0y92JAwEqK4wjEJUfaC6ojqyYegX1eV9FLj8xTtD1kACJEACJEACJEACESfAkDHiA8zukQAJkAAJkAAJkIB3AgwZvTNkDSRAAiRAAiRAAiQQcQIMGSM+wOweCZAACZAACZAACXgnwJDRO0PWQAIkQAIkQAIkQAIRJ8AV0xEfYHaPBEiABEiABEiABLwT4Cyjd4asgQRIgARIgARIgAQiToAhY8QHmN0jARIgARIgARIgAe8EGDJ6Z8gaSIAESIAESIAESCDiBBgyRnyA2T0SIAESIAESIAES8E6AIaN3hqyBBEiABEiABEiABCJOgCFjxAeY3SMBEiABEiABEiAB7wQYMnpnyBpIgARIgARIgARIIOIEGDJGfIDZPRIgARIgARIgARLwToAho3eGrIEESIAESIAESIAEIk7g/694OgqMcHDMAAAAAElFTkSuQmCC;" vertex="1" parent="1">
          <mxGeometry x="590" y="57" width="483.61" height="393" as="geometry" />
        </mxCell>
        <mxCell id="1zBleYjPCfKHzwChKZNf-3" value="&lt;font style=&quot;font-size: 25px;&quot;&gt;A&lt;/font&gt;" style="text;html=1;strokeColor=none;fillColor=none;align=center;verticalAlign=middle;whiteSpace=wrap;rounded=0;" vertex="1" parent="1">
          <mxGeometry x="10" y="27" width="60" height="30" as="geometry" />
        </mxCell>
        <mxCell id="1zBleYjPCfKHzwChKZNf-4" value="&lt;font style=&quot;font-size: 25px;&quot;&gt;B&lt;/font&gt;" style="text;html=1;strokeColor=none;fillColor=none;align=center;verticalAlign=middle;whiteSpace=wrap;rounded=0;" vertex="1" parent="1">
          <mxGeometry x="561.07" y="20" width="60" height="30" as="geometry" />
        </mxCell>
      </root>
    </mxGraphModel>
  </diagram>
</mxfile>
